<?xml version="1.0" encoding="UTF-8" standalone="no"?>
<!-- Created with Inkscape (http://www.inkscape.org/) -->

<svg
   xmlns:dc="http://purl.org/dc/elements/1.1/"
   xmlns:cc="http://creativecommons.org/ns#"
   xmlns:rdf="http://www.w3.org/1999/02/22-rdf-syntax-ns#"
   xmlns:svg="http://www.w3.org/2000/svg"
   xmlns="http://www.w3.org/2000/svg"
   xmlns:sodipodi="http://sodipodi.sourceforge.net/DTD/sodipodi-0.dtd"
   xmlns:inkscape="http://www.inkscape.org/namespaces/inkscape"
   width="500"
   height="500"
   viewBox="0 0 500.00001 500.00001"
   id="svg2"
   version="1.1"
   inkscape:version="0.91 r13725"
   inkscape:export-filename="C:\Users\Guest User\Documents\GitHub\aurora.github.io\assets\an_new.png"
   inkscape:export-xdpi="90"
   inkscape:export-ydpi="90"
   sodipodi:docname="an new.svg">
  <defs
     id="defs4" />
  <sodipodi:namedview
     id="base"
     pagecolor="#ffffff"
     bordercolor="#666666"
     borderopacity="1.0"
     inkscape:pageopacity="0.0"
     inkscape:pageshadow="2"
     inkscape:zoom="0.70710678"
     inkscape:cx="363.22288"
     inkscape:cy="293.72583"
     inkscape:document-units="px"
     inkscape:current-layer="layer1"
     showgrid="false"
     units="px"
     showguides="false"
     inkscape:window-width="1366"
     inkscape:window-height="705"
     inkscape:window-x="-8"
     inkscape:window-y="-8"
     inkscape:window-maximized="1" />
  <metadata
     id="metadata7">
    <rdf:RDF>
      <cc:Work
         rdf:about="">
        <dc:format>image/svg+xml</dc:format>
        <dc:type
           rdf:resource="http://purl.org/dc/dcmitype/StillImage" />
        <dc:title></dc:title>
      </cc:Work>
    </rdf:RDF>
  </metadata>
  <g
     inkscape:label="Layer 1"
     inkscape:groupmode="layer"
     id="layer1"
     transform="translate(0,-552.36216)">
    <path
       sodipodi:type="star"
       style="fill:#75ad30;fill-opacity:1"
       id="path4140"
       sodipodi:sides="8"
       sodipodi:cx="374.92776"
       sodipodi:cy="696.93707"
       sodipodi:r1="410.40955"
       sodipodi:r2="205.20477"
       sodipodi:arg1="1.0471976"
       sodipodi:arg2="1.4398967"
       inkscape:flatsided="false"
       inkscape:rounded="0"
       inkscape:randomized="0"
       d="M 580.13252,1052.3622 401.71235,900.38629 268.70594,1093.3622 250.007,859.73696 19.502662,902.14183 171.47855,723.72166 -21.49741,590.71525 212.12788,572.01631 169.72301,341.51197 348.14318,493.48785 481.14959,300.5119 499.84853,534.13719 730.35287,491.73232 578.37698,670.15249 771.35294,803.1589 537.72765,821.85783 Z"
       inkscape:transform-center-x="-2.5068051"
       inkscape:transform-center-y="-21.739777"
       transform="matrix(0.61854179,-0.04368963,0.04513632,0.61892943,-13.365668,387.38775)" />
    <rect
       style="fill:#94c745;fill-opacity:1"
       id="rect4142"
       width="350"
       height="350"
       x="75.296463"
       y="634.47992"
       ry="175" />
    <path
       inkscape:connector-curvature="0"
       id="path4149"
       style="font-style:normal;font-variant:normal;font-weight:normal;font-stretch:normal;font-size:medium;line-height:125%;font-family:BigNoodleTitling;-inkscape-font-specification:BigNoodleTitling;letter-spacing:0px;word-spacing:0px;fill:#ffffff;fill-opacity:1;stroke:none;stroke-width:1px;stroke-linecap:butt;stroke-linejoin:miter;stroke-opacity:1"
       d="m 169.60171,811.60704 -17.76239,-60.30963 16.68509,-4.91409 36.7533,124.79053 -16.68509,4.91409 -7.31994,-24.85382 -34.64032,-51.56117 24.05857,81.6874 -16.68509,4.91409 -36.7533,-124.79053 16.68509,-4.91409 35.66408,55.03722 z" />
    <path
       inkscape:connector-curvature="0"
       id="path4151"
       style="font-style:normal;font-variant:normal;font-weight:normal;font-stretch:normal;font-size:medium;line-height:125%;font-family:BigNoodleTitling;-inkscape-font-specification:BigNoodleTitling;letter-spacing:0px;word-spacing:0px;fill:#ffffff;fill-opacity:1;stroke:none;stroke-width:1px;stroke-linecap:butt;stroke-linejoin:miter;stroke-opacity:1"
       d="m 220.25391,871.37402 0,-130.09028 43.12185,0 0,15.76303 -25.72816,0 0,39.49816 22.82921,0 0,15.76303 -22.82921,0 0,43.30304 25.72816,0 0,15.76302 -43.12185,0 z" />
    <path
       inkscape:connector-curvature="0"
       id="path4153"
       style="font-style:normal;font-variant:normal;font-weight:normal;font-stretch:normal;font-size:medium;line-height:125%;font-family:BigNoodleTitling;-inkscape-font-specification:BigNoodleTitling;letter-spacing:0px;word-spacing:0px;fill:#ffffff;fill-opacity:1;stroke:none;stroke-width:1px;stroke-linecap:butt;stroke-linejoin:miter;stroke-opacity:1"
       d="m 395.34565,765.92471 -55.62866,119.15446 -18.05519,-5.3921 11.32557,-75.27975 -31.63766,69.21363 -18.05519,-5.3921 18.82385,-130.14606 16.49272,4.92548 -16.08845,96.9265 39.69908,-89.87529 13.02057,3.88854 -16.08844,96.9265 39.69908,-89.87529 16.49272,4.92548 z" />
  </g>
</svg>
