<?xml version="1.0" encoding="UTF-8" standalone="no"?>
<!-- Created with Inkscape (http://www.inkscape.org/) -->

<svg
   xmlns:dc="http://purl.org/dc/elements/1.1/"
   xmlns:cc="http://creativecommons.org/ns#"
   xmlns:rdf="http://www.w3.org/1999/02/22-rdf-syntax-ns#"
   xmlns:svg="http://www.w3.org/2000/svg"
   xmlns="http://www.w3.org/2000/svg"
   xmlns:xlink="http://www.w3.org/1999/xlink"
   xmlns:sodipodi="http://sodipodi.sourceforge.net/DTD/sodipodi-0.dtd"
   xmlns:inkscape="http://www.inkscape.org/namespaces/inkscape"
   width="1000"
   height="500"
   viewBox="0 0 1000 500"
   id="svg2"
   version="1.1"
   inkscape:version="0.91 r13725"
   inkscape:export-filename="C:\Users\Guest User\Documents\GitHub\aurora.github.io\assets\login.png"
   inkscape:export-xdpi="90"
   inkscape:export-ydpi="90"
   sodipodi:docname="AtoJ.svg">
  <defs
     id="defs4">
    <inkscape:path-effect
       effect="skeletal"
       id="path-effect4412"
       is_visible="true"
       pattern="m 0,557.36216 c 0,-2.76 2.24,-5 5,-5 2.76,0 5,2.24 5,5 0,2.76 -2.24,5 -5,5 -2.76,0 -5,-2.24 -5,-5 z"
       copytype="single_stretched"
       prop_scale="1"
       scale_y_rel="false"
       spacing="0"
       normal_offset="0"
       tang_offset="0"
       prop_units="false"
       vertical_pattern="false"
       fuse_tolerance="0" />
    <inkscape:path-effect
       effect="skeletal"
       id="path-effect4408"
       is_visible="true"
       pattern="m 0,557.36216 c 0,-2.76 2.24,-5 5,-5 2.76,0 5,2.24 5,5 0,2.76 -2.24,5 -5,5 -2.76,0 -5,-2.24 -5,-5 z"
       copytype="single_stretched"
       prop_scale="1"
       scale_y_rel="false"
       spacing="0"
       normal_offset="0"
       tang_offset="0"
       prop_units="false"
       vertical_pattern="false"
       fuse_tolerance="0" />
    <inkscape:path-effect
       effect="skeletal"
       id="path-effect4404"
       is_visible="true"
       pattern="m 0,557.36216 c 0,-2.76 2.24,-5 5,-5 2.76,0 5,2.24 5,5 0,2.76 -2.24,5 -5,5 -2.76,0 -5,-2.24 -5,-5 z"
       copytype="single_stretched"
       prop_scale="1"
       scale_y_rel="false"
       spacing="0"
       normal_offset="0"
       tang_offset="0"
       prop_units="false"
       vertical_pattern="false"
       fuse_tolerance="0" />
    <path
       id="m5bPjclsQx"
       d="M171.44 93.31L186.45 96.86L197.42 106.33L204.88 119.14L208.43 129.7L207.24 152.19L199.85 163.73L184.59 176.73L160.2 179.7L144.12 175.86L130.32 163.73L123.86 143.02L127.36 119.94L140.08 100.71L155.37 93.31L171.44 93.31Z" />
    <path
       id="a3AqiFPD9l"
       d="M164.64 185.78L171.44 188.22L180.32 184.67L182.69 176.73L161.38 180.23L164.64 185.78Z" />
    <path
       id="b4AOeE8cne"
       d="M213.23 193.54L210.86 200.64L211.75 203.01L204.36 206.56L197.42 211.29L198.14 214.84L201.69 219.58L206.13 225.49L211.75 226.68L220.92 226.68L232.46 231.41L241.34 235.26L247.85 237.03L254.95 235.26L257.31 229.93L254.95 224.31L252.58 219.58L247.26 210.11L240.15 199.75L235.13 194.43L232.46 192.65L220.92 210.11L219.44 200.64C219.76 197.84 219.76 196.07 219.44 195.32C219.13 194.57 218.51 193.06 217.58 190.81L213.23 193.54Z" />
    <path
       id="d2zQgeadrC"
       d="M126.67 210.63L129.04 207.97L129.93 200.87L128.15 189.03L129.04 185.78L132.29 187.26L139.69 201.75L149.16 203.82L154.19 206.19L155.37 209.74L152.26 215.51L151.23 221.58L144.12 226.01L139.1 225.42L132.29 224.53L132.29 227.49L126.67 232.82L113.66 242.29C107.34 245 103.7 246.48 102.71 246.72C101.72 246.97 99.75 247.46 96.79 248.2L93.83 244.65L92.35 240.51L93.83 234.89L99.16 226.01L106.85 216.84L112.77 211.81L121.05 203.82L126.67 210.63Z" />
    <path
       id="e4jQKDpaH"
       d="M126.08 192.88L129.04 192.88L129.04 207.08L126.08 210.63L118.69 199.68L126.08 192.88Z" />
    <path
       id="afGNGm4yZ"
       d="M152.26 216.25L154.19 211.81L154.19 205.89L151.23 204.48L145.06 203.23L139.1 201.16L132.29 187.26L144.12 176.73L151.23 178.97L161.29 181.34L166.02 187.26L174.85 188.44L181.41 183.41L186.45 174.53L195.31 169.8L207.44 170.61L221.35 178.08L232.89 187.26L234.07 190.21L220.76 208.56L218.39 190.21L215.14 190.81L211.88 194.95L210.4 203.23L201.82 207.08L197.42 211.81L200.34 217.73L203.89 223.05L207.44 226.01L213.06 226.9L221.35 226.9L228.15 230.16L232 235.18L236.44 239.33L239.1 245.54L232 248.2L221.35 249.98L208.92 254.71L197.42 258.85L186.45 261.22L177.25 261.22L173.55 258.85L168.05 243.76L160.4 230.16L152.26 222.17L152.26 216.25Z" />
    <path
       id="bmN2Q1RTw"
       d="M129.94 192.18L130.1 193.01L130.26 193.82L130.4 194.6L130.53 195.36L130.65 196.09L130.76 196.8L130.86 197.49L130.95 198.16L131.02 198.81L131.09 199.43L131.14 200.04L131.19 200.63L131.22 201.2L131.24 201.75L131.25 202.29L131.25 202.81L131.24 203.32L131.21 203.81L131.18 204.29L131.13 204.75L131.07 205.2L131 205.64L130.92 206.07L130.82 206.49L130.72 206.89L130.6 207.29L130.47 207.68L130.33 208.06L130.18 208.44L130.01 208.81L129.84 209.17L129.65 209.52L129.44 209.88L129.23 210.22L129 210.57L128.77 210.91L128.51 211.25L128.25 211.59L128.11 211.78L127.95 211.98L127.78 212.18L127.6 212.38L127.41 212.59L127.21 212.8L127 213.01L126.78 213.23L126.56 213.45L126.32 213.67L126.08 213.89L125.82 214.11L125.57 214.34L125.3 214.56L125.03 214.79L124.75 215.01L124.46 215.24L124.17 215.47L123.88 215.69L123.58 215.92L123.27 216.14L122.97 216.36L122.66 216.58L122.34 216.8L122.02 217.02L121.7 217.24L121.38 217.45L121.06 217.66L120.74 217.86L120.41 218.07L120.09 218.27L119.76 218.46L119.44 218.65L119.11 218.84L118.79 219.02L118.47 219.19L118.15 219.37L117.83 219.53L117.52 219.69L117.21 219.84L115.74 220.57L114.31 221.29L112.93 222L111.6 222.71L110.32 223.42L109.08 224.11L107.89 224.81L106.75 225.49L105.66 226.17L104.61 226.85L103.61 227.52L102.66 228.18L101.75 228.84L100.9 229.49L100.09 230.14L99.33 230.78L98.61 231.41L97.94 232.04L97.32 232.66L96.75 233.28L96.23 233.89L95.75 234.5L95.32 235.09L94.93 235.69L94.6 236.27L94.31 236.85L94.07 237.43L93.88 238L93.73 238.56L93.63 239.11L93.58 239.66L93.58 240.21L93.62 240.74L93.71 241.27L93.85 241.8L94.04 242.32L94.27 242.83L94.55 243.33L94.88 243.83L95.25 244.32L97.78 247.38L104.3 244.86L104.81 244.66L105.33 244.46L105.85 244.25L106.37 244.03L106.9 243.8L107.43 243.57L107.96 243.32L108.5 243.07L109.05 242.81L109.6 242.54L110.15 242.26L110.7 241.97L111.26 241.67L111.83 241.37L112.4 241.06L112.97 240.74L113.55 240.41L114.13 240.07L114.72 239.72L115.31 239.37L115.91 239L116.51 238.63L117.11 238.25L117.72 237.86L118.34 237.47L118.96 237.06L119.58 236.65L120.21 236.22L120.84 235.79L121.48 235.35L122.12 234.9L122.77 234.45L123.42 233.98L124.08 233.51L124.74 233.02L125.4 232.53L126.08 232.03L126.75 231.53L127.43 231.01L128.12 230.49L133.31 226.36L130.11 230.75L129.7 231.29L129.23 231.84L128.71 232.41L128.14 233L127.53 233.59L126.87 234.19L126.17 234.81L125.44 235.43L124.67 236.05L123.87 236.68L123.04 237.31L122.18 237.94L121.3 238.58L120.4 239.2L119.48 239.83L118.54 240.45L117.59 241.06L116.63 241.67L115.66 242.26L114.68 242.84L113.7 243.41L112.72 243.97L111.74 244.51L110.77 245.03L109.81 245.53L108.85 246.01L107.91 246.46L106.99 246.9L106.08 247.31L105.19 247.69L104.33 248.04L103.49 248.36L102.68 248.65L101.9 248.9L101.16 249.12L100.46 249.31L99.79 249.45L99.16 249.56L98.58 249.62L98.05 249.65L97.82 249.64L97.59 249.61L97.35 249.57L97.12 249.5L96.89 249.43L96.66 249.33L96.43 249.22L96.2 249.1L95.97 248.96L95.74 248.81L95.51 248.64L95.29 248.46L95.07 248.27L94.85 248.07L94.64 247.85L94.43 247.62L94.23 247.39L94.03 247.14L93.83 246.88L93.64 246.62L93.46 246.35L93.28 246.06L93.11 245.78L92.94 245.48L92.78 245.18L92.63 244.87L92.49 244.55L92.36 244.23L92.23 243.91L92.12 243.58L92.01 243.25L91.91 242.92L91.83 242.58L91.75 242.24L91.68 241.9L91.63 241.56L91.59 241.22L91.55 240.88L91.54 240.54L91.53 240.2L91.54 239.84L91.57 239.46L91.62 239.07L91.69 238.66L91.78 238.23L91.89 237.79L92.01 237.34L92.16 236.86L92.32 236.38L92.5 235.88L92.69 235.37L92.91 234.85L93.14 234.31L93.39 233.77L93.65 233.21L93.93 232.65L94.22 232.07L94.53 231.49L94.85 230.9L95.19 230.3L95.54 229.7L95.9 229.09L96.28 228.47L96.67 227.85L97.08 227.23L97.49 226.6L97.92 225.96L98.36 225.33L98.81 224.69L99.27 224.05L99.75 223.41L100.23 222.77L100.73 222.13L101.23 221.49L101.74 220.86L102.26 220.22L102.79 219.59L103.33 218.96L103.88 218.33L104.44 217.71L104.9 217.2L105.36 216.69L105.83 216.2L106.3 215.71L106.77 215.23L107.24 214.77L107.71 214.31L108.18 213.87L108.65 213.43L109.12 213.01L109.58 212.6L110.05 212.21L110.51 211.83L110.96 211.46L111.41 211.1L111.86 210.76L112.29 210.43L112.73 210.12L113.15 209.83L113.57 209.55L113.97 209.28L114.37 209.04L114.76 208.81L115.14 208.59L115.5 208.4L115.86 208.22L116.2 208.06L116.53 207.92L116.84 207.8L117.14 207.7L117.42 207.62L117.69 207.56L117.95 207.52L118.18 207.51L118.4 207.51L118.6 207.54L118.78 207.58L118.94 207.66L119.08 207.75L119.2 207.87L119.24 207.91L119.28 207.95L119.31 207.99L119.33 208.03L119.35 208.07L119.37 208.11L119.39 208.16L119.4 208.2L119.41 208.24L119.41 208.29L119.41 208.33L119.41 208.37L119.4 208.41L119.39 208.46L119.38 208.5L119.37 208.54L119.35 208.59L119.32 208.63L119.3 208.67L119.27 208.72L119.24 208.76L119.2 208.8L119.17 208.84L119.13 208.88L119.08 208.92L119.04 208.96L118.99 209L118.94 209.04L118.89 209.08L118.83 209.12L118.77 209.16L118.71 209.2L118.65 209.23L118.58 209.27L118.51 209.3L118.44 209.34L118.37 209.37L118.3 209.4L118.22 209.43L118.14 209.46L118.05 209.5L117.95 209.55L117.84 209.62L117.71 209.69L117.57 209.78L117.42 209.88L117.26 210L117.08 210.13L116.9 210.26L116.7 210.41L116.49 210.57L116.28 210.75L116.05 210.93L115.81 211.12L115.57 211.32L115.31 211.54L115.05 211.76L114.78 211.99L114.5 212.23L114.21 212.47L113.92 212.73L113.62 212.99L113.32 213.27L113 213.54L112.69 213.83L112.36 214.12L112.04 214.42L111.71 214.73L111.37 215.04L111.03 215.36L110.69 215.68L110.34 216.01L109.99 216.34L109.64 216.68L109.28 217.02L108.93 217.36L108.57 217.71L108.21 218.06L107.85 218.42L107.5 218.78L107.14 219.13L106.79 219.48L106.46 219.82L106.13 220.16L105.81 220.48L105.51 220.8L105.21 221.11L104.92 221.41L104.65 221.7L104.38 221.99L104.13 222.26L103.88 222.52L103.65 222.78L103.43 223.03L103.22 223.26L103.02 223.49L102.83 223.7L102.65 223.91L102.49 224.1L102.34 224.28L102.2 224.45L102.08 224.61L101.96 224.76L101.86 224.9L101.78 225.02L101.7 225.14L101.64 225.24L101.6 225.32L101.56 225.4L101.55 225.46L101.54 225.5L101.55 225.54L101.58 225.56L101.62 225.57L101.67 225.56L101.74 225.54L101.83 225.5L101.93 225.45L102.04 225.38L102.17 225.3L102.32 225.2L102.48 225.11L102.64 225L102.82 224.89L103.01 224.77L103.21 224.65L103.42 224.52L103.64 224.39L103.87 224.25L104.11 224.11L104.35 223.97L104.61 223.82L104.87 223.66L105.14 223.51L105.41 223.35L105.69 223.18L105.98 223.02L106.28 222.85L106.58 222.68L106.88 222.5L107.19 222.33L107.5 222.15L107.82 221.97L108.14 221.79L108.47 221.61L108.79 221.43L109.12 221.24L109.46 221.06L109.79 220.88L110.13 220.69L110.46 220.51L110.8 220.33L111.14 220.15L111.47 219.97L111.81 219.79L112.15 219.61L112.49 219.43L112.82 219.25L113.15 219.08L113.48 218.91L114.33 218.48L115.14 218.07L115.91 217.67L116.64 217.29L117.34 216.92L117.99 216.57L118.62 216.23L119.2 215.91L119.75 215.59L120.27 215.29L120.75 215L121.2 214.71L121.62 214.44L122 214.17L122.35 213.91L122.67 213.66L122.96 213.41L123.23 213.17L123.46 212.93L123.66 212.69L123.84 212.46L123.99 212.23L124.11 211.99L124.2 211.76L124.27 211.53L124.32 211.3L124.34 211.07L124.34 210.83L124.31 210.59L124.26 210.34L124.19 210.09L124.1 209.83L123.98 209.57L123.85 209.3L123.7 209.02L123.53 208.73L123.34 208.43L123.13 208.12L122.9 207.8L122.66 207.47L122.54 207.31L122.42 207.15L122.29 206.99L122.16 206.83L122.03 206.67L121.9 206.51L121.76 206.35L121.62 206.19L121.48 206.03L121.34 205.87L121.2 205.72L121.06 205.56L120.91 205.41L120.77 205.26L120.62 205.11L120.47 204.96L120.33 204.81L120.18 204.67L120.03 204.53L119.89 204.39L119.74 204.26L119.59 204.12L119.45 203.99L119.3 203.87L119.16 203.74L119.01 203.62L118.87 203.51L118.73 203.4L118.59 203.29L118.45 203.18L118.32 203.08L118.18 202.99L118.05 202.9L117.92 202.81L117.8 202.73L117.67 202.66L117.55 202.59L117.43 202.52L117.32 202.46L117.21 202.41L117.02 202.31L116.85 202.22L116.69 202.13L116.54 202.04L116.4 201.95L116.27 201.86L116.15 201.77L116.05 201.69L115.95 201.6L115.87 201.51L115.81 201.43L115.75 201.34L115.71 201.25L115.68 201.15L115.67 201.06L115.67 200.96L115.68 200.85L115.71 200.75L115.75 200.63L115.81 200.52L115.88 200.39L115.97 200.26L116.07 200.13L116.19 199.99L116.33 199.84L116.48 199.68L116.64 199.52L116.83 199.34L117.03 199.16L117.25 198.97L117.48 198.77L117.73 198.55L118 198.33L118.29 198.1L118.59 197.85L118.92 197.59L119.26 197.32L119.62 197.03L120 196.74L120.4 196.42L120.64 196.23L120.88 196.04L121.11 195.84L121.35 195.64L121.58 195.44L121.81 195.23L122.04 195.03L122.27 194.82L122.49 194.61L122.71 194.4L122.93 194.18L123.14 193.97L123.35 193.76L123.56 193.54L123.76 193.33L123.96 193.11L124.16 192.9L124.34 192.69L124.53 192.48L124.71 192.27L124.88 192.06L125.05 191.85L125.22 191.65L125.37 191.44L125.52 191.24L125.67 191.05L125.81 190.85L125.94 190.66L126.07 190.47L126.18 190.29L126.29 190.11L126.4 189.93L126.49 189.76L126.58 189.59L126.66 189.43L126.73 189.28L126.79 189.12L126.84 188.98L126.89 188.84L126.92 188.71L126.96 188.58L127.01 188.45L127.05 188.33L127.1 188.21L127.16 188.09L127.21 187.97L127.27 187.85L127.33 187.74L127.4 187.63L127.46 187.52L127.53 187.41L127.6 187.31L127.67 187.21L127.75 187.12L127.83 187.02L127.91 186.93L127.99 186.84L128.08 186.76L128.16 186.67L128.25 186.6L128.34 186.52L128.44 186.45L128.53 186.38L128.63 186.31L128.72 186.25L128.82 186.19L128.93 186.14L129.03 186.09L129.13 186.04L129.24 185.99L129.35 185.95L129.46 185.92L129.57 185.89L129.68 185.86L129.8 185.84L129.91 185.82L130.03 185.8L130.14 185.79L130.26 185.78L130.38 185.78L130.49 185.78L130.61 185.77L130.74 185.75L130.87 185.72L131 185.69L131.14 185.65L131.28 185.6L131.43 185.55L131.59 185.49L131.74 185.43L131.9 185.36L132.07 185.28L132.24 185.2L132.41 185.11L132.58 185.02L132.76 184.92L132.94 184.81L133.12 184.7L133.3 184.59L133.49 184.47L133.68 184.34L133.87 184.21L134.06 184.08L134.25 183.94L134.44 183.8L134.64 183.65L134.83 183.5L135.03 183.35L135.22 183.19L135.41 183.03L135.61 182.87L135.8 182.7L135.99 182.53L136.18 182.35L136.37 182.18L136.56 182L136.75 181.82L136.94 181.63L137.12 181.44L137.3 181.26L141.56 176.6L135.44 172.08L135.07 171.8L134.72 171.52L134.38 171.25L134.05 170.98L133.73 170.72L133.41 170.45L133.11 170.18L132.81 169.92L132.53 169.65L132.25 169.39L131.98 169.12L131.71 168.84L131.46 168.57L131.2 168.29L130.96 168.01L130.72 167.72L130.48 167.43L130.25 167.14L130.02 166.83L129.8 166.52L129.58 166.2L129.36 165.88L129.15 165.54L128.93 165.2L128.72 164.84L128.51 164.48L128.3 164.1L128.09 163.72L127.88 163.32L127.67 162.91L127.46 162.48L127.25 162.04L127.04 161.59L126.82 161.12L126.6 160.64L126.38 160.14L126.16 159.63L125.93 159.09L125.69 158.54L125.46 157.97L121.6 148.26L123.2 134.42L123.26 133.84L123.32 133.26L123.39 132.67L123.47 132.08L123.54 131.49L123.62 130.9L123.7 130.31L123.79 129.72L123.88 129.13L123.97 128.54L124.06 127.95L124.16 127.37L124.26 126.79L124.36 126.21L124.46 125.64L124.56 125.08L124.67 124.52L124.77 123.96L124.88 123.42L124.99 122.88L125.1 122.35L125.21 121.83L125.33 121.32L125.44 120.82L125.55 120.33L125.66 119.85L125.78 119.39L125.89 118.93L126 118.49L126.11 118.07L126.23 117.66L126.34 117.26L126.45 116.88L126.56 116.52L126.67 116.18L126.77 115.85L126.88 115.54L126.98 115.25L127.09 114.98L127.19 114.73L127.6 113.85L128.03 112.97L128.49 112.11L128.97 111.25L129.47 110.41L129.99 109.58L130.54 108.76L131.1 107.95L131.68 107.16L132.28 106.37L132.9 105.61L133.54 104.85L134.19 104.11L134.87 103.39L135.55 102.68L136.26 101.98L136.97 101.31L137.71 100.65L138.45 100L139.21 99.38L139.98 98.77L140.77 98.18L141.56 97.61L142.37 97.06L143.19 96.53L144.02 96.03L144.85 95.54L145.7 95.07L146.55 94.63L147.41 94.2L148.28 93.8L149.16 93.43L150.04 93.08L150.92 92.75L151.82 92.44L152.71 92.16L153.61 91.91L154.51 91.69L155.42 91.48L156.33 91.31L156.82 91.23L157.31 91.16L157.8 91.09L158.29 91.03L158.77 90.98L159.25 90.93L159.73 90.88L160.22 90.84L160.7 90.8L161.18 90.78L161.67 90.75L162.17 90.73L162.66 90.72L163.17 90.72L163.68 90.72L164.19 90.72L164.72 90.74L165.25 90.76L165.8 90.78L166.36 90.81L166.92 90.85L167.5 90.9L168.1 90.95L168.7 91.01L169.33 91.07L169.97 91.14L170.62 91.22L171.29 91.31L171.99 91.4L172.7 91.5L173.43 91.61L174.18 91.72L174.96 91.84L175.76 91.97L176.58 92.11L177.42 92.25L178.3 92.4L179.2 92.56L180.12 92.73L181.07 92.91L181.58 93.01L182.07 93.1L182.54 93.2L183 93.3L183.43 93.39L183.85 93.49L184.26 93.59L184.65 93.69L185.03 93.8L185.39 93.9L185.74 94.01L186.09 94.13L186.42 94.25L186.75 94.37L187.06 94.5L187.37 94.64L187.68 94.79L187.97 94.94L188.27 95.1L188.56 95.27L188.85 95.45L189.13 95.64L189.42 95.84L189.71 96.05L189.99 96.27L190.28 96.51L190.57 96.76L190.87 97.02L191.17 97.3L191.48 97.59L191.79 97.89L192.11 98.21L192.44 98.55L192.78 98.91L193.12 99.28L193.48 99.67L193.85 100.08L194.24 100.51L194.63 100.96L195.05 101.42L195.3 101.72L195.56 102.02L195.82 102.34L196.09 102.67L196.37 103L196.65 103.35L196.94 103.7L197.23 104.06L197.52 104.43L197.82 104.81L198.12 105.19L198.43 105.58L198.73 105.97L199.04 106.37L199.35 106.78L199.66 107.18L199.97 107.59L200.28 108.01L200.59 108.42L200.9 108.84L201.21 109.26L201.52 109.68L201.82 110.1L202.12 110.52L202.43 110.95L202.72 111.37L203.02 111.78L203.31 112.2L203.59 112.61L203.88 113.02L204.15 113.43L204.42 113.84L204.69 114.23L204.95 114.63L205.2 115.02L205.45 115.4L205.69 115.77L205.92 116.14L206.14 116.5L206.35 116.86L211.54 125.24L210.88 138.95L210.83 139.94L210.78 140.88L210.74 141.78L210.69 142.64L210.65 143.45L210.6 144.23L210.56 144.96L210.51 145.66L210.46 146.32L210.4 146.96L210.35 147.56L210.29 148.13L210.22 148.68L210.15 149.21L210.07 149.71L209.99 150.19L209.9 150.65L209.8 151.1L209.7 151.53L209.58 151.95L209.46 152.36L209.32 152.76L209.18 153.16L209.02 153.54L208.85 153.93L208.67 154.32L208.48 154.71L208.27 155.1L208.05 155.49L207.81 155.9L207.56 156.31L207.29 156.73L207 157.17L206.7 157.62L206.38 158.09L206.04 158.58L205.69 159.09L205.31 159.62L204.91 160.18L204.49 160.77L198.77 168.88L203.03 168.08L203.3 168.04L203.56 168L203.82 167.96L204.08 167.93L204.33 167.91L204.59 167.89L204.84 167.88L205.09 167.88L205.34 167.88L205.6 167.89L205.85 167.91L206.11 167.94L206.37 167.98L206.63 168.02L206.9 168.07L207.17 168.13L207.45 168.2L207.73 168.28L208.02 168.37L208.32 168.47L208.62 168.57L208.93 168.69L209.25 168.82L209.58 168.96L209.92 169.1L210.27 169.26L210.63 169.43L211 169.61L211.39 169.81L211.78 170.01L212.2 170.23L212.62 170.46L213.06 170.7L213.52 170.95L213.99 171.21L214.47 171.49L214.98 171.78L215.5 172.09L216.04 172.41L216.6 172.74L217.39 173.22L218.19 173.72L219 174.24L219.8 174.77L220.61 175.33L221.42 175.89L222.23 176.47L223.03 177.05L223.82 177.65L224.61 178.25L225.39 178.85L226.16 179.46L226.92 180.08L227.66 180.69L228.39 181.3L229.1 181.91L229.79 182.51L230.45 183.1L231.1 183.69L231.72 184.27L232.31 184.83L232.87 185.38L233.41 185.92L233.91 186.44L234.38 186.94L234.81 187.42L235.21 187.88L235.56 188.32L235.88 188.73L236.15 189.11L236.38 189.47L236.56 189.79L236.7 190.09L236.78 190.35L236.82 190.57L236.8 190.76L236.73 190.91L236.6 191.01L236.41 191.08L236.16 191.1L236.02 191.1L235.9 191.11L235.78 191.12L235.68 191.14L235.58 191.16L235.49 191.19L235.42 191.22L235.35 191.26L235.29 191.3L235.24 191.35L235.21 191.41L235.18 191.47L235.16 191.54L235.15 191.62L235.16 191.7L235.17 191.79L235.19 191.88L235.23 191.99L235.27 192.1L235.33 192.22L235.39 192.34L235.47 192.48L235.55 192.62L235.65 192.77L235.76 192.93L235.88 193.1L236.01 193.27L236.15 193.46L236.3 193.65L236.46 193.85L236.63 194.07L236.81 194.29L237.01 194.52L237.22 194.76L237.43 195.01L237.66 195.27L237.9 195.55L238.15 195.83L238.41 196.12L238.69 196.42L239.06 196.83L239.43 197.23L239.79 197.63L240.14 198.03L240.49 198.43L240.83 198.83L241.16 199.23L241.5 199.64L241.83 200.05L242.15 200.46L242.48 200.89L242.8 201.32L243.13 201.76L243.45 202.21L243.78 202.67L244.11 203.14L244.44 203.63L244.77 204.13L245.11 204.65L245.46 205.19L245.81 205.75L246.16 206.32L246.53 206.92L246.9 207.54L247.28 208.18L247.67 208.85L248.07 209.54L248.48 210.26L248.9 211.01L249.33 211.79L249.78 212.59L250.24 213.43L250.72 214.31L251.21 215.21L251.72 216.16L252.24 217.14L252.78 218.15L253.34 219.21L253.92 220.3L254.52 221.44L254.8 221.96L255.07 222.46L255.33 222.94L255.58 223.4L255.81 223.85L256.03 224.28L256.24 224.7L256.44 225.1L256.62 225.48L256.79 225.85L256.96 226.2L257.11 226.55L257.25 226.88L257.38 227.19L257.5 227.5L257.61 227.79L257.71 228.08L257.8 228.35L257.88 228.62L257.95 228.87L258.01 229.12L258.06 229.36L258.1 229.59L258.13 229.82L258.16 230.04L258.17 230.26L258.18 230.47L258.18 230.67L258.17 230.88L258.15 231.07L258.13 231.27L258.09 231.47L258.05 231.66L258.01 231.85L257.95 232.04L257.89 232.23L257.82 232.43L257.75 232.62L257.67 232.82L257.58 233.01L257.37 233.45L257.13 233.88L256.87 234.28L256.59 234.67L256.29 235.03L255.96 235.38L255.62 235.71L255.26 236.02L254.88 236.32L254.48 236.59L254.06 236.85L253.63 237.08L253.18 237.3L252.72 237.5L252.25 237.67L251.76 237.83L251.27 237.97L250.76 238.09L250.24 238.19L249.71 238.27L249.18 238.33L248.64 238.37L248.09 238.39L247.53 238.39L246.97 238.37L246.41 238.33L245.84 238.26L245.27 238.18L244.7 238.08L244.13 237.95L243.56 237.81L242.99 237.64L242.42 237.46L241.85 237.25L241.29 237.02L240.73 236.77L240.17 236.49L239.63 236.2L239.09 235.88L238.55 235.54L238.24 235.32L237.94 235.11L237.66 234.92L237.39 234.74L237.14 234.58L236.9 234.43L236.68 234.3L236.47 234.18L236.27 234.08L236.09 233.99L235.93 233.91L235.78 233.85L235.64 233.8L235.52 233.77L235.42 233.75L235.33 233.74L235.26 233.75L235.2 233.78L235.16 233.81L235.13 233.86L235.12 233.93L235.12 234L235.14 234.1L235.17 234.2L235.22 234.32L235.29 234.45L235.37 234.6L235.47 234.76L235.58 234.93L235.71 235.11L235.86 235.31L236.02 235.52L236.19 235.75L236.39 235.98L236.6 236.23L236.82 236.49L237.06 236.77L237.32 237.06L237.6 237.36L237.89 237.67L238.35 238.16L238.78 238.64L239.19 239.09L239.57 239.53L239.93 239.96L240.26 240.37L240.57 240.76L240.85 241.14L241.11 241.51L241.34 241.87L241.55 242.21L241.73 242.54L241.88 242.86L242.01 243.16L242.12 243.46L242.2 243.74L242.25 244.02L242.27 244.28L242.27 244.54L242.25 244.79L242.19 245.03L242.11 245.26L242.01 245.49L241.87 245.71L241.71 245.92L241.53 246.13L241.31 246.33L241.07 246.53L240.8 246.72L240.51 246.91L240.18 247.1L239.83 247.29L239.46 247.47L239.05 247.65L238.62 247.83L238.15 248L237.66 248.18L237.15 248.36L236.6 248.54L236.03 248.71L235.74 248.81L235.45 248.9L235.14 248.99L234.83 249.08L234.51 249.17L234.18 249.27L233.84 249.36L233.5 249.46L233.14 249.55L232.79 249.65L232.42 249.74L232.05 249.84L231.68 249.93L231.3 250.03L230.92 250.13L230.54 250.22L230.15 250.31L229.76 250.41L229.37 250.5L228.97 250.59L228.58 250.69L228.18 250.78L227.79 250.87L227.39 250.96L227 251.04L226.61 251.13L226.22 251.22L225.83 251.3L225.44 251.38L225.06 251.47L224.68 251.55L224.31 251.62L223.94 251.7L223.57 251.77L223.22 251.85L222.86 251.92L222.52 251.98L222.18 252.05L221.85 252.11L221.52 252.17L221.19 252.24L220.84 252.31L220.49 252.38L220.13 252.46L219.76 252.54L219.38 252.64L218.99 252.73L218.6 252.83L218.2 252.93L217.79 253.04L217.38 253.16L216.97 253.27L216.55 253.39L216.13 253.52L215.7 253.65L215.27 253.78L214.84 253.91L214.41 254.05L213.97 254.19L213.54 254.34L213.11 254.48L212.67 254.63L212.24 254.78L211.81 254.93L211.38 255.09L210.95 255.24L210.53 255.4L210.11 255.56L209.7 255.72L209.29 255.88L208.88 256.04L208.48 256.2L208.09 256.36L207.7 256.53L207.32 256.69L206.95 256.85L206.59 257.01L206.24 257.18L205.89 257.34L205.56 257.5L205.14 257.69L204.72 257.89L204.3 258.08L203.88 258.26L203.45 258.44L203.03 258.62L202.61 258.8L202.18 258.97L201.76 259.13L201.33 259.29L200.9 259.45L200.47 259.6L200.04 259.75L199.61 259.9L199.18 260.04L198.74 260.18L198.31 260.31L197.87 260.44L197.43 260.57L196.99 260.69L196.55 260.81L196.1 260.92L195.66 261.03L195.21 261.14L194.76 261.24L194.31 261.34L193.85 261.43L193.4 261.52L192.94 261.61L192.48 261.69L192.01 261.77L191.55 261.84L191.08 261.91L190.61 261.98L190.14 262.04L189.66 262.09L189.18 262.15L188.7 262.2L188.21 262.24L187.73 262.29L186.84 262.37L185.98 262.45L185.16 262.52L184.37 262.58L183.62 262.63L182.9 262.67L182.21 262.71L181.55 262.73L180.92 262.75L180.31 262.75L179.74 262.74L179.19 262.73L178.67 262.7L178.18 262.66L177.71 262.62L177.27 262.56L176.85 262.49L176.45 262.4L176.07 262.31L175.72 262.2L175.38 262.08L175.07 261.95L174.77 261.81L174.5 261.65L174.24 261.48L173.99 261.3L173.77 261.11L173.55 260.9L173.35 260.67L173.17 260.43L173 260.18L172.84 259.91L172.69 259.63L172.55 259.34L172.42 259.02L172.3 258.7L172.19 258.35L172.08 258L171.99 257.62L171.89 257.23L171.77 256.71L171.63 256.15L171.46 255.56L171.27 254.95L171.06 254.3L170.83 253.64L170.58 252.95L170.31 252.24L170.02 251.51L169.72 250.76L169.41 250L169.07 249.23L168.73 248.44L168.37 247.64L168 246.83L167.62 246.02L167.23 245.2L166.83 244.38L166.42 243.55L166.01 242.73L165.58 241.91L165.16 241.09L164.72 240.27L164.29 239.47L163.85 238.67L163.41 237.89L162.96 237.11L162.52 236.36L162.08 235.61L161.64 234.89L161.2 234.19L160.77 233.5L160.34 232.84L159.91 232.21L159.49 231.6L159.08 231.02L158.68 230.47L158.28 229.95L157.9 229.47L157.52 229.02L157.22 228.67L156.93 228.34L156.65 228.02L156.38 227.72L156.12 227.43L155.88 227.16L155.64 226.9L155.41 226.66L155.19 226.43L154.98 226.21L154.77 226.01L154.58 225.83L154.39 225.66L154.2 225.5L154.03 225.35L153.86 225.22L153.69 225.1L153.53 224.99L153.37 224.9L153.22 224.82L153.07 224.74L152.92 224.68L152.77 224.63L152.63 224.6L152.49 224.57L152.34 224.55L152.2 224.55L152.06 224.55L151.92 224.57L151.78 224.59L151.64 224.62L151.49 224.66L151.34 224.71L151.19 224.77L151.04 224.84L150.88 224.92L150.72 225L150.55 225.09L150.38 225.19L150.21 225.3L149.88 225.48L149.51 225.65L149.11 225.81L148.68 225.96L148.22 226.1L147.72 226.22L147.21 226.34L146.67 226.44L146.11 226.53L145.53 226.61L144.94 226.68L144.33 226.74L143.72 226.79L143.09 226.83L142.46 226.86L141.82 226.87L141.18 226.88L140.54 226.88L139.91 226.87L139.28 226.84L138.66 226.81L138.04 226.77L137.45 226.72L136.86 226.66L136.29 226.59L135.75 226.51L135.22 226.42L134.72 226.32L134.24 226.22L133.8 226.1L133.38 225.98L133 225.85L132.65 225.71L132.35 225.56L132.08 225.4L131.86 225.24L131.68 225.06L131.55 224.88L131.47 224.69L131.45 224.5L131.46 224.39L131.51 224.29L131.58 224.2L131.69 224.11L131.82 224.03L131.97 223.96L132.15 223.89L132.35 223.82L132.57 223.77L132.81 223.72L133.07 223.67L133.34 223.63L133.62 223.6L133.92 223.58L134.23 223.55L134.55 223.54L134.88 223.53L135.21 223.53L135.55 223.53L135.89 223.53L136.23 223.55L136.57 223.57L136.91 223.59L137.25 223.62L137.58 223.65L137.91 223.69L138.23 223.74L138.54 223.79L138.85 223.84L139.14 223.9L139.41 223.97L139.67 224.03L139.91 224.11L140.14 224.19L140.35 224.27L140.53 224.36L140.69 224.46L140.83 224.55L140.94 224.66L141.02 224.77L141.12 224.91L141.24 225.03L141.37 225.14L141.52 225.22L141.68 225.3L141.86 225.35L142.05 225.39L142.25 225.42L142.46 225.43L142.68 225.42L142.91 225.41L143.16 225.37L143.4 225.33L143.66 225.27L143.92 225.19L144.19 225.11L144.46 225.01L144.74 224.9L145.02 224.78L145.3 224.65L145.58 224.51L145.86 224.35L146.15 224.19L146.43 224.02L146.71 223.84L146.98 223.65L147.26 223.45L147.52 223.24L147.79 223.02L148.04 222.8L148.29 222.57L148.53 222.33L148.76 222.09L148.99 221.84L149.2 221.59L149.4 221.33L149.59 221.06L149.76 220.79L149.93 220.52L150.07 220.24L150.15 220.09L150.23 219.95L150.3 219.82L150.36 219.69L150.43 219.56L150.49 219.44L150.54 219.33L150.6 219.22L150.65 219.11L150.69 219.01L150.73 218.92L150.77 218.83L150.81 218.75L150.84 218.67L150.86 218.59L150.89 218.52L150.9 218.46L150.92 218.4L150.93 218.35L150.94 218.3L150.94 218.25L150.94 218.21L150.93 218.17L150.93 218.14L150.91 218.12L150.89 218.09L150.87 218.08L150.85 218.06L150.82 218.06L150.78 218.05L150.75 218.05L150.7 218.06L150.66 218.07L150.6 218.08L150.55 218.1L150.49 218.12L150.43 218.14L150.36 218.17L150.28 218.21L150.21 218.25L150.05 218.34L149.91 218.42L149.77 218.49L149.64 218.55L149.52 218.59L149.42 218.63L149.32 218.65L149.23 218.67L149.15 218.67L149.07 218.66L149.01 218.65L148.95 218.62L148.91 218.58L148.87 218.54L148.84 218.49L148.82 218.42L148.81 218.35L148.81 218.28L148.81 218.19L148.83 218.1L148.85 217.99L148.88 217.89L148.91 217.77L148.96 217.65L149.01 217.52L149.08 217.39L149.15 217.25L149.22 217.11L149.31 216.96L149.4 216.8L149.5 216.65L149.61 216.48L149.73 216.32L149.85 216.14L149.98 215.97L150.12 215.79L150.26 215.61L150.41 215.43L150.57 215.24L150.74 215.05L150.94 214.82L151.14 214.58L151.33 214.34L151.52 214.09L151.69 213.84L151.86 213.58L152.02 213.33L152.17 213.06L152.31 212.8L152.45 212.54L152.57 212.27L152.69 212L152.8 211.74L152.9 211.47L153 211.2L153.08 210.94L153.16 210.67L153.22 210.41L153.28 210.15L153.33 209.9L153.37 209.64L153.4 209.4L153.43 209.15L153.44 208.91L153.44 208.68L153.44 208.45L153.42 208.23L153.4 208.01L153.36 207.81L153.32 207.61L153.27 207.41L153.2 207.23L153.13 207.06L153.05 206.89L152.95 206.74L152.85 206.6L152.74 206.46L152.61 206.34L152.48 206.23L152.33 206.14L152.26 206.1L152.18 206.06L152.08 206.01L151.98 205.97L151.87 205.93L151.74 205.88L151.62 205.84L151.48 205.79L151.33 205.75L151.18 205.7L151.02 205.65L150.85 205.6L150.67 205.56L150.49 205.51L150.3 205.46L150.11 205.41L149.91 205.37L149.7 205.32L149.49 205.27L149.27 205.22L149.05 205.18L148.83 205.13L148.59 205.08L148.36 205.04L148.12 204.99L147.88 204.95L147.63 204.9L147.38 204.86L147.13 204.81L146.87 204.77L146.61 204.73L146.35 204.69L146.09 204.65L145.83 204.61L145.56 204.57L145.29 204.54L145.03 204.5L144.76 204.47L144.49 204.44L144.22 204.41L143.77 204.36L143.34 204.31L142.93 204.26L142.55 204.21L142.18 204.17L141.83 204.12L141.49 204.07L141.17 204.01L140.87 203.96L140.58 203.9L140.31 203.84L140.05 203.77L139.81 203.7L139.57 203.63L139.35 203.55L139.14 203.46L138.94 203.37L138.75 203.27L138.57 203.16L138.4 203.04L138.23 202.92L138.07 202.79L137.92 202.64L137.77 202.49L137.63 202.33L137.49 202.15L137.35 201.97L137.22 201.77L137.09 201.56L136.96 201.34L136.83 201.1L136.7 200.85L136.57 200.59L136.44 200.31L136.3 200.01L136.16 199.7L136.02 199.37L135.88 199.03L135.73 198.67L135.57 198.29L135.48 198.07L135.38 197.84L135.29 197.61L135.19 197.38L135.09 197.15L134.98 196.91L134.88 196.67L134.77 196.43L134.66 196.19L134.54 195.94L134.43 195.7L134.32 195.46L134.2 195.21L134.08 194.97L133.96 194.72L133.84 194.48L133.72 194.23L133.6 193.99L133.48 193.75L133.36 193.51L133.24 193.28L133.11 193.04L132.99 192.81L132.87 192.59L132.75 192.36L132.62 192.14L132.5 191.93L132.38 191.72L132.26 191.51L132.15 191.31L132.03 191.11L131.91 190.92L131.8 190.74L131.68 190.56L131.57 190.39L131.46 190.22L131.36 190.06L131.25 189.91L131.15 189.77L131.05 189.64L128.65 186.45L129.58 190.44L129.77 191.32L129.94 192.18ZM198 171.22L197.67 171.24L197.36 171.27L197.05 171.31L196.76 171.36L196.49 171.42L196.23 171.49L195.98 171.56L195.75 171.64L195.54 171.74L195.34 171.84L195.17 171.95L195.01 172.07L194.87 172.19L194.75 172.33L194.65 172.47L194.61 172.53L194.56 172.59L194.52 172.65L194.47 172.7L194.43 172.75L194.38 172.8L194.33 172.84L194.28 172.89L194.23 172.93L194.18 172.97L194.13 173.01L194.08 173.05L194.02 173.08L193.97 173.11L193.91 173.14L193.86 173.17L193.8 173.19L193.75 173.22L193.69 173.24L193.63 173.26L193.57 173.27L193.52 173.29L193.46 173.3L193.4 173.31L193.34 173.32L193.28 173.32L193.23 173.32L193.17 173.32L193.11 173.32L193.06 173.32L193 173.31L192.94 173.3L192.89 173.29L192.83 173.28L192.78 173.26L192.72 173.24L192.67 173.22L192.62 173.19L192.57 173.17L192.52 173.14L192.47 173.1L192.42 173.07L192.37 173.03L192.32 173L192.27 172.98L192.23 172.95L192.18 172.93L192.14 172.91L192.09 172.9L192.05 172.89L192.01 172.88L191.96 172.87L191.92 172.86L191.88 172.86L191.85 172.86L191.81 172.87L191.77 172.87L191.74 172.88L191.7 172.89L191.67 172.91L191.64 172.92L191.61 172.94L191.58 172.96L191.55 172.99L191.52 173.01L191.5 173.04L191.47 173.07L191.45 173.1L191.43 173.14L191.41 173.18L191.4 173.22L191.38 173.26L191.37 173.3L191.35 173.35L191.34 173.4L191.34 173.45L191.33 173.5L191.32 173.56L191.32 173.61L191.32 173.67L191.32 173.72L191.31 173.77L191.3 173.83L191.29 173.88L191.27 173.93L191.25 173.99L191.23 174.04L191.2 174.1L191.17 174.15L191.13 174.21L191.09 174.26L191.05 174.32L191.01 174.38L190.96 174.43L190.91 174.49L190.86 174.55L190.8 174.6L190.75 174.66L190.68 174.71L190.62 174.77L190.55 174.82L190.49 174.88L190.42 174.93L190.34 174.98L190.27 175.04L190.19 175.09L190.11 175.14L190.03 175.19L189.95 175.23L189.86 175.28L189.77 175.33L189.68 175.37L189.59 175.41L189.5 175.46L189.41 175.5L189.31 175.53L189.22 175.57L189.12 175.6L189.02 175.64L188.92 175.67L188.76 175.74L188.59 175.84L188.41 175.95L188.23 176.09L188.05 176.25L187.85 176.43L187.66 176.62L187.46 176.84L187.26 177.07L187.06 177.31L186.85 177.57L186.65 177.84L186.44 178.12L186.24 178.41L186.04 178.71L185.84 179.02L185.64 179.34L185.44 179.66L185.25 179.99L185.07 180.32L184.88 180.66L184.71 181L184.54 181.34L184.37 181.67L184.22 182.01L184.07 182.35L183.93 182.68L183.8 183L183.68 183.32L183.57 183.64L183.48 183.95L183.39 184.24L183.32 184.53L183.26 184.81L183.21 185.07L183.18 185.32L183.16 185.56L183.16 185.78L183.17 185.99L183.2 186.18L183.21 186.23L183.22 186.28L183.22 186.32L183.22 186.36L183.22 186.4L183.22 186.44L183.21 186.48L183.21 186.51L183.2 186.55L183.19 186.58L183.17 186.61L183.16 186.63L183.14 186.66L183.12 186.68L183.1 186.7L183.08 186.72L183.05 186.74L183.03 186.75L183 186.77L182.97 186.78L182.94 186.79L182.91 186.79L182.87 186.8L182.84 186.8L182.8 186.8L182.77 186.8L182.73 186.8L182.69 186.79L182.65 186.79L182.6 186.78L182.56 186.77L182.52 186.75L182.47 186.74L182.43 186.72L182.38 186.7L182.33 186.68L182.29 186.66L182.24 186.63L182.19 186.61L182.14 186.58L182.09 186.55L182.04 186.53L181.98 186.5L181.92 186.49L181.87 186.47L181.81 186.46L181.74 186.45L181.68 186.45L181.62 186.45L181.55 186.45L181.49 186.45L181.42 186.46L181.35 186.47L181.28 186.48L181.21 186.5L181.14 186.52L181.06 186.54L180.99 186.57L180.92 186.6L180.84 186.63L180.77 186.66L180.69 186.7L180.62 186.74L180.54 186.78L180.46 186.82L180.39 186.87L180.31 186.92L180.23 186.97L180.16 187.03L180.08 187.08L180 187.14L179.93 187.2L179.85 187.27L179.78 187.33L179.7 187.4L179.63 187.47L179.56 187.55L179.49 187.62L179.41 187.7L179.34 187.78L179 188.15L178.63 188.5L178.24 188.82L177.83 189.12L177.39 189.39L176.94 189.64L176.47 189.85L175.98 190.05L175.48 190.22L174.97 190.36L174.44 190.48L173.91 190.58L173.36 190.65L172.81 190.7L172.26 190.72L171.7 190.72L171.14 190.7L170.58 190.66L170.02 190.59L169.47 190.5L168.91 190.39L168.37 190.26L167.83 190.11L167.3 189.93L166.79 189.74L166.28 189.52L165.79 189.28L165.31 189.02L164.85 188.75L164.41 188.45L163.99 188.13L163.6 187.8L163.22 187.44L162.87 187.07L162.55 186.68L162.25 186.27L161.99 185.84L161.75 185.39L161.55 184.93L161.38 184.45L161.33 184.3L161.28 184.16L161.22 184.02L161.16 183.89L161.1 183.76L161.03 183.64L160.96 183.52L160.89 183.41L160.81 183.3L160.73 183.19L160.65 183.09L160.56 182.99L160.46 182.9L160.37 182.81L160.26 182.73L160.15 182.65L160.04 182.57L159.92 182.5L159.8 182.43L159.67 182.37L159.53 182.31L159.39 182.25L159.25 182.2L159.09 182.15L158.93 182.1L158.77 182.06L158.59 182.02L158.41 181.99L158.23 181.95L158.03 181.92L157.83 181.9L157.62 181.87L157.41 181.85L157.18 181.84L156.95 181.82L156.71 181.81L156.46 181.8L156.2 181.79L155.94 181.79L155.66 181.79L155.46 181.78L155.26 181.76L155.05 181.75L154.84 181.73L154.62 181.71L154.41 181.69L154.19 181.66L153.97 181.63L153.76 181.6L153.53 181.57L153.31 181.54L153.09 181.5L152.87 181.47L152.64 181.43L152.42 181.39L152.2 181.34L151.98 181.3L151.76 181.25L151.54 181.21L151.32 181.16L151.1 181.11L150.89 181.05L150.68 181L150.47 180.95L150.26 180.89L150.06 180.83L149.86 180.77L149.66 180.71L149.47 180.65L149.28 180.59L149.1 180.53L148.92 180.46L148.74 180.4L148.57 180.33L148.41 180.27L148.25 180.2L148.1 180.13L147.95 180.06L147.81 180L147.68 179.93L147.47 179.82L147.27 179.72L147.08 179.63L146.89 179.54L146.71 179.46L146.54 179.39L146.36 179.33L146.2 179.27L146.03 179.23L145.87 179.19L145.71 179.16L145.55 179.14L145.39 179.12L145.24 179.12L145.08 179.13L144.93 179.14L144.77 179.17L144.61 179.21L144.45 179.25L144.28 179.31L144.12 179.38L143.95 179.46L143.78 179.55L143.6 179.65L143.41 179.76L143.22 179.89L143.03 180.02L142.83 180.17L142.62 180.33L142.4 180.51L142.18 180.69L141.94 180.89L141.7 181.11L141.45 181.33L141.18 181.57L140.91 181.83L140.62 182.09L140.33 182.38L140.02 182.67L139.69 182.99L134.77 187.78L137.83 194.03L137.95 194.29L138.07 194.55L138.2 194.8L138.32 195.06L138.45 195.31L138.57 195.56L138.7 195.81L138.82 196.05L138.95 196.3L139.08 196.54L139.21 196.77L139.33 197.01L139.46 197.24L139.59 197.46L139.71 197.68L139.84 197.9L139.96 198.11L140.08 198.32L140.21 198.52L140.33 198.72L140.45 198.91L140.56 199.1L140.68 199.28L140.79 199.45L140.9 199.62L141.01 199.78L141.12 199.93L141.22 200.08L141.33 200.22L141.42 200.35L141.52 200.48L141.61 200.6L141.7 200.7L141.79 200.8L141.87 200.89L141.95 200.98L142.02 201.05L142.09 201.12L142.16 201.17L142.22 201.21L142.29 201.24L142.36 201.26L142.44 201.27L142.52 201.28L142.62 201.28L142.72 201.27L142.83 201.26L142.94 201.24L143.06 201.21L143.19 201.18L143.32 201.14L143.46 201.1L143.6 201.05L143.75 200.99L143.91 200.93L144.07 200.87L144.23 200.8L144.4 200.72L144.57 200.64L144.75 200.55L144.93 200.46L145.12 200.36L145.31 200.26L145.5 200.15L145.69 200.04L145.89 199.92L146.09 199.8L146.3 199.68L146.5 199.55L146.71 199.42L146.92 199.28L147.14 199.14L147.35 199L147.57 198.85L147.78 198.7L148 198.54L148.22 198.38L148.44 198.22L148.66 198.06L148.88 197.89L149.15 197.66L149.42 197.45L149.68 197.24L149.93 197.04L150.17 196.85L150.4 196.67L150.63 196.5L150.85 196.34L151.06 196.18L151.26 196.04L151.45 195.9L151.64 195.77L151.82 195.65L151.99 195.54L152.15 195.44L152.31 195.35L152.46 195.26L152.6 195.19L152.74 195.12L152.87 195.06L152.99 195.01L153.1 194.97L153.21 194.93L153.31 194.91L153.4 194.89L153.49 194.88L153.57 194.88L153.65 194.89L153.72 194.91L153.78 194.93L153.83 194.96L153.88 195.01L153.93 195.05L153.96 195.11L153.99 195.18L154.02 195.25L154.04 195.33L154.05 195.42L154.06 195.52L154.06 195.63L154.06 195.72L154.06 195.81L154.04 195.9L154.03 196L154.01 196.09L153.99 196.19L153.96 196.29L153.93 196.38L153.89 196.48L153.85 196.58L153.81 196.68L153.77 196.78L153.72 196.88L153.66 196.98L153.61 197.09L153.55 197.19L153.49 197.29L153.42 197.39L153.35 197.49L153.28 197.59L153.21 197.69L153.13 197.79L153.05 197.89L152.97 197.98L152.89 198.08L152.8 198.17L152.71 198.27L152.62 198.36L152.53 198.45L152.44 198.55L152.34 198.63L152.24 198.72L152.14 198.81L152.04 198.89L151.94 198.97L151.83 199.05L151.73 199.13L151.62 199.21L151.51 199.28L151.4 199.35L151.15 199.52L150.91 199.68L150.69 199.84L150.47 200L150.27 200.15L150.09 200.3L149.92 200.44L149.76 200.58L149.61 200.72L149.48 200.85L149.36 200.98L149.26 201.11L149.16 201.23L149.09 201.35L149.02 201.47L148.97 201.58L148.93 201.69L148.9 201.8L148.89 201.9L148.89 202L148.91 202.09L148.93 202.18L148.97 202.27L149.03 202.36L149.09 202.44L149.17 202.52L149.27 202.6L149.37 202.67L149.49 202.75L149.63 202.81L149.77 202.88L149.93 202.94L150.1 203L150.29 203.06L150.48 203.11L150.7 203.16L150.92 203.21L151.16 203.26L151.41 203.3L151.67 203.34L151.79 203.37L151.91 203.39L152.04 203.43L152.16 203.46L152.29 203.5L152.42 203.55L152.55 203.6L152.68 203.65L152.81 203.71L152.94 203.77L153.07 203.84L153.2 203.91L153.33 203.98L153.46 204.06L153.59 204.14L153.72 204.22L153.85 204.31L153.98 204.4L154.11 204.49L154.23 204.59L154.35 204.69L154.48 204.79L154.6 204.89L154.72 205L154.83 205.11L154.95 205.22L155.06 205.33L155.17 205.45L155.27 205.56L155.37 205.68L155.47 205.8L155.57 205.92L155.66 206.05L155.75 206.17L155.84 206.3L155.92 206.42L155.99 206.55L156.06 206.68L156.13 206.81L156.19 206.94L156.29 207.12L156.38 207.31L156.47 207.49L156.54 207.67L156.62 207.84L156.68 208.01L156.74 208.19L156.8 208.35L156.85 208.52L156.89 208.69L156.92 208.86L156.95 209.02L156.98 209.19L156.99 209.36L157 209.53L157.01 209.7L157 209.87L157 210.04L156.98 210.22L156.96 210.4L156.93 210.58L156.9 210.76L156.85 210.95L156.81 211.14L156.75 211.34L156.69 211.54L156.62 211.75L156.55 211.96L156.47 212.18L156.38 212.4L156.29 212.63L156.18 212.87L156.08 213.11L155.96 213.36L155.84 213.62L155.71 213.89L155.58 214.17L155.43 214.45L155.28 214.75L155.13 215.05L152.33 220.11L156.99 224.23L157.34 224.56L157.7 224.92L158.08 225.34L158.48 225.79L158.89 226.29L159.31 226.82L159.74 227.39L160.18 227.99L160.63 228.63L161.09 229.3L161.56 230L162.03 230.72L162.51 231.48L163 232.25L163.48 233.05L163.97 233.87L164.47 234.71L164.96 235.57L165.45 236.44L165.94 237.32L166.43 238.22L166.91 239.12L167.39 240.04L167.86 240.96L168.33 241.88L168.79 242.81L169.24 243.74L169.69 244.67L170.12 245.6L170.54 246.52L170.95 247.43L171.34 248.34L171.72 249.24L172.08 250.12L172.43 251L172.76 251.86L173.07 252.7L173.37 253.52L173.64 254.32L173.89 255.1L173.99 255.41L174.09 255.71L174.18 256L174.28 256.27L174.38 256.54L174.47 256.79L174.57 257.03L174.67 257.25L174.77 257.47L174.87 257.68L174.97 257.87L175.07 258.06L175.18 258.23L175.29 258.4L175.4 258.56L175.52 258.71L175.64 258.85L175.76 258.98L175.89 259.11L176.02 259.23L176.16 259.34L176.3 259.44L176.45 259.54L176.6 259.63L176.76 259.72L176.93 259.8L177.1 259.88L177.28 259.95L177.47 260.02L177.67 260.08L177.87 260.14L178.09 260.19L178.31 260.25L178.54 260.3L178.78 260.34L179.03 260.39L179.3 260.43L179.57 260.48L179.85 260.52L180.14 260.56L180.33 260.58L180.52 260.59L180.71 260.61L180.9 260.63L181.08 260.64L181.26 260.66L181.45 260.67L181.63 260.68L181.81 260.7L181.98 260.71L182.16 260.72L182.33 260.72L182.5 260.73L182.66 260.74L182.83 260.74L182.99 260.75L183.14 260.75L183.29 260.75L183.44 260.76L183.59 260.76L183.73 260.76L183.86 260.75L183.99 260.75L184.12 260.75L184.24 260.74L184.36 260.74L184.47 260.73L184.57 260.72L184.67 260.72L184.76 260.71L184.85 260.7L184.93 260.68L185.01 260.67L185.08 260.66L185.14 260.64L185.19 260.63L185.24 260.61L185.28 260.59L185.31 260.58L185.33 260.56L185.36 260.53L185.39 260.5L185.44 260.47L185.49 260.44L185.55 260.41L185.62 260.38L185.7 260.35L185.79 260.32L185.89 260.29L185.99 260.26L186.1 260.23L186.22 260.2L186.35 260.17L186.48 260.14L186.62 260.11L186.77 260.09L186.92 260.06L187.08 260.03L187.24 260L187.41 259.97L187.59 259.95L187.77 259.92L187.95 259.89L188.14 259.87L188.33 259.84L188.53 259.81L188.73 259.79L188.94 259.76L189.14 259.74L189.35 259.71L189.57 259.69L189.79 259.67L190 259.64L190.23 259.62L190.45 259.6L190.67 259.58L190.9 259.55L191.13 259.53L191.36 259.51L191.59 259.49L191.83 259.47L192.08 259.44L192.35 259.4L192.62 259.36L192.9 259.31L193.19 259.26L193.48 259.2L193.78 259.14L194.09 259.07L194.41 258.99L194.73 258.91L195.06 258.83L195.39 258.74L195.72 258.65L196.06 258.55L196.41 258.44L196.75 258.34L197.1 258.23L197.45 258.11L197.81 258L198.16 257.87L198.52 257.75L198.87 257.62L199.23 257.49L199.59 257.36L199.94 257.22L200.3 257.08L200.65 256.94L201 256.79L201.35 256.65L201.7 256.5L202.04 256.35L202.38 256.2L202.72 256.05L203.05 255.89L203.38 255.73L203.7 255.58L204.01 255.42L204.32 255.26L204.62 255.1L205.23 254.78L205.84 254.46L206.47 254.15L207.1 253.83L207.74 253.52L208.39 253.21L209.04 252.9L209.69 252.6L210.35 252.3L211.01 252L211.67 251.71L212.33 251.42L212.99 251.14L213.64 250.87L214.29 250.6L214.94 250.34L215.58 250.08L216.22 249.83L216.85 249.59L217.46 249.36L218.07 249.14L218.67 248.93L219.26 248.72L219.83 248.53L220.39 248.35L220.93 248.17L221.45 248.01L221.96 247.86L222.45 247.72L222.92 247.6L223.37 247.49L223.8 247.39L224.21 247.3L224.59 247.23L224.94 247.17L225.27 247.13L225.58 247.1L225.85 247.09L226.1 247.1L226.31 247.12L226.65 247.16L227 247.19L227.35 247.22L227.7 247.24L228.05 247.26L228.41 247.27L228.76 247.28L229.12 247.28L229.47 247.28L229.82 247.28L230.17 247.27L230.52 247.26L230.87 247.24L231.21 247.22L231.54 247.2L231.87 247.17L232.2 247.14L232.52 247.1L232.83 247.06L233.13 247.02L233.43 246.97L233.71 246.92L233.99 246.87L234.25 246.81L234.51 246.75L234.75 246.69L234.98 246.62L235.2 246.55L235.4 246.48L235.59 246.41L235.77 246.33L235.93 246.25L236.07 246.17L236.2 246.08L236.3 245.99L236.39 245.9L236.46 245.81L236.52 245.72L236.55 245.62L236.56 245.52L236.55 245.41L236.51 245.27L236.46 245.11L236.38 244.92L236.29 244.71L236.17 244.47L236.04 244.22L235.89 243.95L235.72 243.66L235.53 243.35L235.33 243.02L235.11 242.68L234.88 242.32L234.64 241.95L234.38 241.57L234.11 241.17L233.83 240.77L233.54 240.35L233.24 239.93L232.93 239.5L232.61 239.06L232.29 238.62L231.95 238.17L231.61 237.72L231.27 237.27L230.92 236.82L230.57 236.36L230.21 235.91L229.85 235.46L229.49 235.01L229.12 234.56L228.76 234.12L228.39 233.68L228.03 233.26L227.67 232.84L227.31 232.42L226.96 232.02L226.6 231.63L226.26 231.25L225.91 230.89L225.7 230.67L225.47 230.46L225.23 230.25L224.98 230.05L224.71 229.86L224.44 229.67L224.16 229.49L223.87 229.32L223.57 229.15L223.27 229L222.95 228.84L222.64 228.7L222.32 228.56L221.99 228.44L221.66 228.32L221.33 228.2L221 228.1L220.66 228L220.33 227.92L219.99 227.84L219.66 227.77L219.33 227.72L219 227.67L218.67 227.63L218.35 227.6L218.03 227.58L217.72 227.57L217.41 227.57L217.11 227.59L216.82 227.61L216.54 227.65L216.26 227.69L216 227.75L215.74 227.82L215.5 227.9L215.27 227.99L215.05 228.1L214.84 228.22L214.65 228.35L214.47 228.49L214.36 228.58L214.25 228.66L214.14 228.74L214.03 228.81L213.92 228.88L213.82 228.94L213.7 229L213.59 229.05L213.48 229.1L213.37 229.14L213.25 229.18L213.14 229.22L213.02 229.25L212.9 229.27L212.78 229.29L212.66 229.31L212.53 229.32L212.41 229.32L212.28 229.33L212.14 229.32L212.01 229.32L211.87 229.3L211.72 229.29L211.58 229.27L211.43 229.24L211.27 229.21L211.12 229.18L210.95 229.14L210.79 229.1L210.62 229.05L210.44 229L210.26 228.95L210.07 228.89L209.88 228.82L209.69 228.76L209.48 228.68L209.28 228.61L209.06 228.53L208.84 228.45L208.62 228.36L208.46 228.29L208.3 228.22L208.14 228.14L207.99 228.07L207.83 227.99L207.68 227.92L207.53 227.84L207.38 227.76L207.24 227.68L207.09 227.6L206.95 227.52L206.82 227.44L206.68 227.36L206.55 227.28L206.42 227.2L206.29 227.12L206.17 227.04L206.05 226.95L205.93 226.87L205.82 226.79L205.71 226.71L205.61 226.64L205.51 226.56L205.42 226.48L205.33 226.4L205.24 226.33L205.16 226.25L205.08 226.18L205.01 226.11L204.95 226.04L204.89 225.97L204.84 225.9L204.79 225.84L204.75 225.77L204.71 225.71L204.68 225.65L204.66 225.59L204.64 225.54L204.63 225.48L204.62 225.43L204.62 225.38L204.62 225.33L204.62 225.29L204.61 225.25L204.6 225.21L204.59 225.17L204.58 225.13L204.56 225.1L204.55 225.06L204.53 225.03L204.51 225L204.49 224.98L204.47 224.95L204.44 224.93L204.41 224.91L204.39 224.89L204.36 224.87L204.33 224.86L204.29 224.84L204.26 224.83L204.22 224.82L204.19 224.82L204.15 224.81L204.11 224.81L204.07 224.81L204.02 224.81L203.98 224.81L203.93 224.82L203.89 224.82L203.84 224.83L203.79 224.84L203.74 224.86L203.69 224.87L203.63 224.89L203.58 224.91L203.53 224.93L203.47 224.95L203.41 224.98L203.35 225L203.29 225.03L203.24 225.06L203.19 225.09L203.15 225.11L203.1 225.13L203.05 225.16L203 225.17L202.95 225.19L202.9 225.21L202.85 225.22L202.81 225.23L202.76 225.24L202.71 225.24L202.67 225.25L202.62 225.25L202.58 225.25L202.54 225.25L202.5 225.24L202.46 225.23L202.42 225.23L202.38 225.21L202.34 225.2L202.31 225.18L202.27 225.17L202.24 225.15L202.21 225.12L202.18 225.1L202.15 225.07L202.13 225.04L202.1 225.01L202.08 224.98L202.06 224.94L202.04 224.9L202.02 224.86L202.01 224.81L201.99 224.77L201.98 224.72L201.97 224.67L201.97 224.61L201.97 224.56L201.96 224.5L201.96 224.45L201.95 224.39L201.94 224.32L201.92 224.25L201.89 224.17L201.86 224.08L201.82 223.99L201.78 223.89L201.74 223.79L201.68 223.68L201.63 223.57L201.57 223.45L201.5 223.33L201.43 223.21L201.35 223.08L201.27 222.94L201.19 222.8L201.1 222.66L201.01 222.52L200.92 222.37L200.82 222.22L200.71 222.07L200.61 221.91L200.5 221.75L200.39 221.59L200.27 221.43L200.15 221.26L200.03 221.09L199.9 220.93L199.77 220.76L199.64 220.59L199.51 220.42L199.38 220.24L199.24 220.07L199.1 219.9L198.96 219.73L198.81 219.56L198.67 219.38L198.52 219.21L198.37 219.04L198.01 218.61L197.68 218.18L197.38 217.75L197.09 217.33L196.84 216.91L196.6 216.5L196.4 216.09L196.21 215.69L196.06 215.3L195.92 214.9L195.81 214.52L195.73 214.14L195.67 213.76L195.64 213.39L195.63 213.03L195.64 212.67L195.68 212.31L195.74 211.96L195.83 211.62L195.94 211.28L196.08 210.94L196.24 210.61L196.43 210.29L196.64 209.97L196.87 209.66L197.13 209.35L197.41 209.05L197.72 208.75L198.05 208.46L198.41 208.17L198.79 207.89L199.19 207.62L199.62 207.35L200.07 207.08L200.55 206.82L201.05 206.57L201.58 206.32L202.12 206.08L202.7 205.84L203.29 205.61L203.63 205.48L203.95 205.35L204.26 205.22L204.57 205.1L204.86 204.97L205.14 204.85L205.41 204.72L205.67 204.6L205.93 204.48L206.17 204.35L206.41 204.23L206.63 204.1L206.85 203.98L207.06 203.85L207.26 203.72L207.45 203.59L207.64 203.46L207.82 203.33L207.99 203.2L208.15 203.06L208.31 202.92L208.46 202.78L208.6 202.64L208.74 202.49L208.87 202.34L208.99 202.19L209.11 202.03L209.22 201.88L209.33 201.71L209.43 201.55L209.53 201.37L209.62 201.2L209.71 201.02L209.79 200.83L209.87 200.64L209.95 200.45L210.02 200.25L210.09 200.05L210.15 199.83L210.21 199.62L210.25 199.46L210.29 199.3L210.33 199.13L210.36 198.97L210.4 198.8L210.43 198.64L210.47 198.47L210.5 198.31L210.53 198.14L210.56 197.98L210.58 197.81L210.61 197.65L210.63 197.48L210.66 197.32L210.68 197.16L210.7 197L210.72 196.84L210.73 196.68L210.75 196.53L210.76 196.37L210.77 196.22L210.78 196.08L210.79 195.93L210.8 195.79L210.8 195.65L210.8 195.51L210.8 195.38L210.8 195.25L210.8 195.12L210.79 195L210.79 194.88L210.78 194.76L210.76 194.65L210.75 194.55L210.73 194.45L210.71 194.35L210.69 194.27L210.67 194.18L210.64 194.1L210.61 194.03L210.58 193.96L210.56 193.89L210.54 193.83L210.52 193.77L210.5 193.71L210.48 193.65L210.47 193.59L210.46 193.54L210.46 193.48L210.45 193.43L210.45 193.39L210.45 193.34L210.46 193.3L210.46 193.26L210.47 193.22L210.48 193.18L210.5 193.15L210.51 193.12L210.53 193.09L210.55 193.06L210.57 193.04L210.59 193.02L210.61 193L210.64 192.99L210.67 192.97L210.7 192.96L210.73 192.95L210.77 192.95L210.8 192.94L210.84 192.94L210.88 192.95L210.91 192.95L210.96 192.96L211 192.97L211.04 192.99L211.09 193L211.13 193.02L211.18 193.04L211.23 193.07L211.28 193.1L211.34 193.13L211.4 193.15L211.45 193.17L211.51 193.19L211.56 193.21L211.62 193.22L211.67 193.22L211.72 193.23L211.77 193.23L211.82 193.23L211.87 193.22L211.92 193.22L211.96 193.21L212.01 193.19L212.05 193.18L212.09 193.16L212.13 193.13L212.17 193.11L212.21 193.08L212.24 193.05L212.28 193.01L212.31 192.98L212.34 192.94L212.37 192.9L212.4 192.85L212.42 192.81L212.45 192.76L212.47 192.7L212.49 192.65L212.51 192.59L212.53 192.53L212.55 192.47L212.56 192.41L212.57 192.34L212.58 192.27L212.59 192.2L212.6 192.13L212.6 192.06L212.61 191.98L212.61 191.9L212.62 191.74L212.64 191.58L212.68 191.43L212.74 191.27L212.81 191.11L212.89 190.96L212.99 190.81L213.1 190.66L213.22 190.52L213.35 190.38L213.49 190.24L213.64 190.11L213.8 189.98L213.97 189.85L214.15 189.73L214.34 189.61L214.53 189.5L214.73 189.4L214.93 189.3L215.14 189.21L215.35 189.12L215.56 189.04L215.78 188.97L216 188.9L216.22 188.84L216.44 188.8L216.66 188.75L216.89 188.72L217.11 188.7L217.32 188.68L217.54 188.68L217.75 188.68L217.96 188.7L218.16 188.72L218.36 188.76L218.56 188.8L218.74 188.86L218.92 188.93L219.1 189.01L219.26 189.11L219.31 189.14L219.36 189.2L219.41 189.26L219.46 189.34L219.51 189.44L219.56 189.54L219.61 189.66L219.66 189.8L219.7 189.94L219.75 190.1L219.8 190.27L219.85 190.45L219.89 190.64L219.94 190.84L219.98 191.06L220.03 191.28L220.07 191.51L220.11 191.76L220.15 192.01L220.19 192.27L220.23 192.54L220.27 192.81L220.31 193.1L220.34 193.39L220.38 193.69L220.41 193.99L220.44 194.31L220.48 194.63L220.51 194.95L220.53 195.28L220.56 195.62L220.59 195.96L220.61 196.3L220.63 196.65L220.65 197.01L220.67 197.36L220.69 197.72L220.7 198.09L220.71 198.45L220.72 198.82L220.73 199.38L220.73 199.91L220.73 200.41L220.73 200.89L220.74 201.35L220.74 201.79L220.75 202.19L220.76 202.58L220.77 202.94L220.78 203.29L220.8 203.6L220.81 203.9L220.83 204.17L220.85 204.43L220.87 204.66L220.89 204.87L220.92 205.06L220.95 205.23L220.98 205.38L221.01 205.51L221.04 205.62L221.08 205.71L221.11 205.78L221.16 205.83L221.2 205.87L221.24 205.88L221.29 205.88L221.34 205.87L221.4 205.83L221.45 205.78L221.51 205.71L221.58 205.63L221.64 205.53L221.71 205.41L221.78 205.28L221.86 205.14L221.93 204.97L222.02 204.8L222.1 204.61L222.19 204.41L222.25 204.27L222.31 204.13L222.36 203.99L222.42 203.85L222.47 203.71L222.53 203.57L222.58 203.44L222.63 203.3L222.68 203.16L222.73 203.03L222.78 202.9L222.83 202.76L222.87 202.63L222.92 202.5L222.96 202.38L223 202.25L223.04 202.12L223.08 202L223.12 201.88L223.15 201.76L223.19 201.65L223.22 201.53L223.25 201.42L223.28 201.31L223.31 201.21L223.33 201.1L223.36 201L223.38 200.91L223.4 200.81L223.42 200.72L223.44 200.63L223.46 200.55L223.47 200.47L223.48 200.39L223.49 200.32L223.5 200.25L223.51 200.19L223.51 200.13L223.52 200.07L223.52 200.02L223.51 199.98L223.5 199.94L223.5 199.9L223.49 199.86L223.49 199.82L223.49 199.79L223.5 199.75L223.5 199.72L223.51 199.68L223.52 199.65L223.53 199.61L223.54 199.58L223.55 199.55L223.57 199.52L223.59 199.49L223.61 199.46L223.63 199.43L223.65 199.4L223.68 199.38L223.7 199.35L223.73 199.33L223.76 199.3L223.79 199.28L223.83 199.26L223.86 199.24L223.9 199.22L223.94 199.2L223.98 199.19L224.02 199.17L224.06 199.16L224.11 199.14L224.15 199.13L224.2 199.12L224.25 199.11L224.3 199.1L224.36 199.1L224.41 199.09L224.47 199.09L224.52 199.09L224.58 199.09L224.63 199.08L224.68 199.08L224.73 199.07L224.77 199.06L224.81 199.05L224.85 199.03L224.89 199.02L224.93 198.99L224.97 198.97L225 198.94L225.04 198.92L225.07 198.88L225.1 198.85L225.12 198.82L225.15 198.78L225.17 198.74L225.19 198.69L225.21 198.65L225.23 198.6L225.25 198.55L225.26 198.5L225.27 198.45L225.28 198.39L225.29 198.34L225.3 198.28L225.3 198.22L225.3 198.16L225.3 198.09L225.3 198.03L225.29 197.96L225.29 197.89L225.28 197.83L225.27 197.75L225.25 197.68L225.23 197.61L225.22 197.53L225.19 197.46L225.17 197.38L225.14 197.3L225.12 197.22L225.09 197.14L225.07 197.06L225.06 196.97L225.05 196.88L225.05 196.78L225.06 196.69L225.07 196.58L225.09 196.48L225.12 196.38L225.15 196.27L225.19 196.16L225.23 196.05L225.28 195.93L225.34 195.81L225.4 195.7L225.47 195.58L225.54 195.45L225.62 195.33L225.71 195.2L225.8 195.08L225.89 194.95L225.99 194.82L226.1 194.69L226.21 194.56L226.32 194.43L226.44 194.3L226.57 194.16L226.7 194.03L226.83 193.9L226.97 193.76L227.11 193.63L227.26 193.49L227.41 193.36L227.56 193.23L227.72 193.09L227.89 192.96L228.05 192.83L228.22 192.69L228.4 192.56L228.57 192.43L228.87 192.22L229.14 192.01L229.41 191.82L229.66 191.63L229.89 191.46L230.12 191.29L230.32 191.13L230.52 190.97L230.7 190.82L230.87 190.68L231.02 190.54L231.16 190.41L231.29 190.29L231.4 190.16L231.51 190.04L231.6 189.93L231.68 189.82L231.74 189.71L231.79 189.6L231.83 189.49L231.86 189.38L231.88 189.28L231.89 189.17L231.88 189.06L231.86 188.95L231.83 188.84L231.79 188.73L231.74 188.61L231.68 188.49L231.61 188.37L231.52 188.25L231.43 188.12L231.32 187.98L231.21 187.84L231.08 187.69L230.95 187.54L230.8 187.38L230.64 187.21L230.48 187.03L230.3 186.84L230 186.51L229.68 186.17L229.34 185.83L228.99 185.48L228.61 185.13L228.22 184.77L227.82 184.42L227.4 184.06L226.97 183.7L226.53 183.34L226.09 182.99L225.63 182.63L225.17 182.28L224.71 181.94L224.24 181.6L223.77 181.26L223.3 180.93L222.82 180.61L222.35 180.3L221.89 179.99L221.43 179.7L220.97 179.41L220.52 179.14L220.08 178.88L219.65 178.64L219.23 178.41L218.83 178.19L218.43 177.99L218.06 177.81L217.69 177.64L217.35 177.49L217.02 177.36L216.72 177.25L216.44 177.17L216.18 177.1L215.94 177.06L215.73 177.04L215.55 177.04L215.39 177.08L215.27 177.13L215.21 177.17L215.15 177.21L215.1 177.24L215.04 177.27L214.99 177.3L214.94 177.33L214.89 177.35L214.84 177.37L214.79 177.39L214.75 177.41L214.7 177.42L214.66 177.43L214.62 177.44L214.58 177.45L214.55 177.46L214.51 177.46L214.48 177.46L214.45 177.46L214.42 177.45L214.39 177.45L214.36 177.44L214.34 177.43L214.31 177.42L214.29 177.4L214.27 177.38L214.26 177.36L214.24 177.34L214.23 177.32L214.21 177.29L214.2 177.26L214.19 177.23L214.19 177.2L214.18 177.17L214.18 177.13L214.18 177.09L214.18 177.05L214.18 177.01L214.19 176.96L214.2 176.91L214.2 176.87L214.22 176.83L214.24 176.78L214.26 176.74L214.27 176.7L214.29 176.66L214.3 176.62L214.31 176.58L214.32 176.54L214.33 176.49L214.33 176.45L214.34 176.41L214.34 176.37L214.34 176.33L214.34 176.29L214.34 176.25L214.34 176.21L214.34 176.17L214.33 176.13L214.33 176.09L214.32 176.05L214.31 176.01L214.3 175.98L214.29 175.94L214.28 175.91L214.27 175.87L214.25 175.84L214.24 175.81L214.22 175.78L214.2 175.75L214.19 175.72L214.17 175.7L214.15 175.67L214.12 175.65L214.1 175.63L214.08 175.61L214.05 175.59L214.02 175.57L214 175.56L213.97 175.55L213.94 175.54L213.9 175.52L213.86 175.51L213.81 175.49L213.76 175.47L213.69 175.44L213.62 175.42L213.54 175.38L213.46 175.35L213.37 175.31L213.27 175.28L213.17 175.23L213.06 175.19L212.94 175.14L212.82 175.09L212.7 175.04L212.57 174.99L212.43 174.93L212.29 174.87L212.14 174.81L211.99 174.75L211.68 174.63L211.52 174.56L211.35 174.49L211.18 174.42L211.01 174.35L210.83 174.28L210.66 174.21L210.47 174.13L210.29 174.06L210.1 173.98L209.92 173.9L209.72 173.83L209.53 173.75L209.34 173.67L209.14 173.59L208.95 173.51L208.75 173.43L208.55 173.35L208.35 173.27L207.92 173.1L207.49 172.93L207.05 172.77L206.61 172.61L206.17 172.47L205.73 172.33L205.28 172.2L204.84 172.08L204.4 171.96L203.96 171.86L203.53 171.76L203.09 171.67L202.66 171.58L202.24 171.51L201.82 171.44L201.4 171.38L200.99 171.33L200.59 171.29L200.19 171.25L199.8 171.23L199.42 171.21L199.05 171.2L198.69 171.2L198.34 171.2L198 171.22ZM216.45 192.52L216.28 192.59L216.11 192.68L215.93 192.79L215.75 192.93L215.56 193.09L215.37 193.28L215.18 193.48L214.99 193.71L214.8 193.95L214.6 194.22L214.41 194.51L214.22 194.83L214.02 195.16L213.83 195.51L213.64 195.88L213.46 196.28L213.27 196.69L213.16 196.99L213.05 197.27L212.94 197.55L212.85 197.81L212.76 198.07L212.68 198.32L212.6 198.55L212.54 198.78L212.48 198.99L212.42 199.2L212.38 199.4L212.34 199.59L212.3 199.77L212.28 199.95L212.26 200.11L212.25 200.27L212.24 200.42L212.24 200.57L212.25 200.71L212.26 200.84L212.28 200.96L212.31 201.08L212.34 201.19L212.38 201.29L212.42 201.39L212.48 201.49L212.53 201.58L212.6 201.66L212.67 201.74L212.74 201.81L212.83 201.88L212.91 201.95L213.01 202.01L213.17 202.13L213.3 202.25L213.4 202.39L213.47 202.53L213.51 202.69L213.52 202.85L213.5 203.02L213.46 203.2L213.38 203.38L213.28 203.57L213.16 203.76L213.01 203.96L212.84 204.16L212.65 204.36L212.44 204.57L212.2 204.77L211.95 204.98L211.67 205.18L211.38 205.39L211.08 205.59L210.75 205.79L210.42 205.98L210.06 206.18L209.7 206.37L209.32 206.55L208.93 206.73L208.53 206.9L208.12 207.06L207.7 207.21L207.27 207.36L206.84 207.49L206.4 207.62L205.96 207.73L205.78 207.78L205.61 207.84L205.43 207.9L205.25 207.96L205.07 208.03L204.89 208.1L204.7 208.17L204.51 208.25L204.32 208.33L204.13 208.41L203.94 208.49L203.76 208.58L203.57 208.67L203.38 208.76L203.19 208.85L203 208.95L202.82 209.05L202.64 209.14L202.46 209.24L202.28 209.34L202.11 209.45L201.93 209.55L201.77 209.65L201.6 209.75L201.44 209.86L201.29 209.96L201.14 210.06L201 210.16L200.86 210.26L200.73 210.37L200.6 210.47L200.48 210.56L200.37 210.66L200.17 210.84L199.98 211.01L199.81 211.17L199.65 211.32L199.51 211.46L199.37 211.6L199.25 211.74L199.15 211.87L199.06 211.99L198.98 212.12L198.92 212.24L198.87 212.36L198.83 212.48L198.81 212.59L198.8 212.71L198.81 212.83L198.83 212.95L198.87 213.07L198.92 213.2L198.98 213.33L199.06 213.47L199.15 213.61L199.26 213.76L199.39 213.91L199.52 214.07L199.68 214.24L199.84 214.42L200.03 214.61L200.22 214.81L200.44 215.01L200.66 215.24L200.91 215.47L201.17 215.72L201.33 215.87L201.5 216.03L201.65 216.19L201.81 216.34L201.95 216.5L202.1 216.65L202.24 216.81L202.37 216.96L202.5 217.11L202.62 217.25L202.74 217.4L202.85 217.54L202.95 217.68L203.05 217.82L203.15 217.95L203.24 218.08L203.32 218.21L203.39 218.33L203.46 218.45L203.52 218.57L203.58 218.68L203.63 218.78L203.67 218.88L203.71 218.98L203.74 219.07L203.76 219.16L203.77 219.23L203.78 219.31L203.78 219.37L203.77 219.44L203.75 219.49L203.73 219.54L203.69 219.58L203.65 219.62L203.61 219.66L203.58 219.71L203.56 219.77L203.54 219.84L203.53 219.91L203.53 219.98L203.53 220.06L203.54 220.15L203.56 220.24L203.58 220.33L203.61 220.43L203.64 220.53L203.68 220.64L203.73 220.75L203.78 220.86L203.84 220.98L203.9 221.1L203.97 221.23L204.04 221.35L204.12 221.48L204.21 221.62L204.29 221.75L204.39 221.89L204.49 222.02L204.59 222.16L204.69 222.3L204.81 222.45L204.92 222.59L205.04 222.73L205.16 222.88L205.29 223.02L205.42 223.17L205.6 223.37L205.78 223.56L205.96 223.74L206.13 223.91L206.31 224.07L206.48 224.22L206.66 224.36L206.84 224.49L207.02 224.62L207.2 224.73L207.38 224.83L207.57 224.93L207.77 225.02L207.97 225.09L208.18 225.16L208.39 225.22L208.61 225.27L208.84 225.32L209.08 225.35L209.32 225.38L209.58 225.4L209.85 225.41L210.13 225.41L210.42 225.4L210.72 225.39L211.04 225.37L211.37 225.34L211.71 225.31L212.07 225.27L212.45 225.22L212.84 225.16L213.25 225.1L213.67 225.03L214.13 224.96L214.57 224.9L215 224.86L215.42 224.82L215.84 224.79L216.25 224.77L216.66 224.77L217.08 224.77L217.49 224.79L217.91 224.83L218.33 224.87L218.77 224.93L219.21 225.01L219.67 225.1L220.14 225.21L220.62 225.33L221.13 225.47L221.65 225.63L222.2 225.8L222.78 225.99L223.37 226.2L224 226.43L224.66 226.68L225.35 226.95L226.08 227.24L226.84 227.55L227.64 227.88L228.48 228.24L229.36 228.61L230.29 229.01L231.27 229.43L232.29 229.88L233.36 230.35L234.68 230.94L235.94 231.49L237.14 232.01L238.29 232.5L239.39 232.95L240.44 233.37L241.44 233.75L242.4 234.1L243.31 234.42L244.17 234.7L244.99 234.96L245.78 235.17L246.52 235.36L247.22 235.52L247.88 235.64L248.51 235.73L249.11 235.78L249.67 235.81L250.2 235.8L250.71 235.77L251.18 235.7L251.63 235.6L252.05 235.47L252.45 235.3L252.82 235.11L253.18 234.89L253.51 234.63L253.83 234.35L254.13 234.04L254.41 233.69L254.68 233.32L254.94 232.92L255.19 232.48L255.31 232.23L255.43 231.96L255.53 231.69L255.61 231.42L255.69 231.15L255.75 230.87L255.8 230.59L255.84 230.31L255.87 230.03L255.89 229.76L255.89 229.48L255.88 229.21L255.87 228.94L255.84 228.68L255.8 228.42L255.75 228.17L255.69 227.92L255.62 227.68L255.54 227.46L255.44 227.24L255.34 227.03L255.23 226.83L255.12 226.65L254.99 226.48L254.85 226.33L254.71 226.19L254.55 226.06L254.39 225.95L254.22 225.86L254.04 225.79L253.85 225.74L253.66 225.71L253.46 225.7L253.38 225.69L253.27 225.67L253.14 225.63L252.97 225.58L252.78 225.52L252.56 225.45L252.31 225.36L252.03 225.26L251.73 225.15L251.41 225.02L251.07 224.89L250.7 224.74L250.31 224.59L249.9 224.42L249.46 224.25L249.01 224.06L248.55 223.87L248.06 223.67L247.56 223.46L247.04 223.24L246.5 223.01L245.96 222.78L245.39 222.54L244.82 222.29L244.23 222.04L243.64 221.78L243.03 221.52L242.41 221.25L241.79 220.98L241.16 220.7L240.52 220.42L239.87 220.13L239.22 219.84L238.58 219.54L237.93 219.24L237.29 218.94L236.64 218.65L236 218.36L235.36 218.07L234.72 217.78L234.08 217.5L233.45 217.23L232.83 216.95L232.21 216.69L231.6 216.43L231 216.17L230.41 215.92L229.84 215.68L229.27 215.45L228.72 215.22L228.18 215L227.65 214.79L227.14 214.59L226.65 214.4L226.18 214.21L225.73 214.04L225.29 213.88L224.88 213.72L224.49 213.58L224.12 213.45L223.78 213.33L223.46 213.22L223.17 213.13L222.9 213.05L222.66 212.98L222.45 212.92L222.02 212.82L221.61 212.72L221.2 212.61L220.81 212.5L220.43 212.38L220.06 212.26L219.71 212.13L219.37 212L219.04 211.87L218.73 211.73L218.43 211.59L218.15 211.45L217.88 211.3L217.63 211.16L217.39 211.01L217.17 210.85L216.96 210.7L216.78 210.54L216.6 210.39L216.45 210.23L216.31 210.07L216.19 209.91L216.08 209.75L216 209.58L215.93 209.42L215.88 209.26L215.85 209.1L215.83 208.93L215.84 208.77L215.87 208.61L215.91 208.45L215.98 208.29L216.07 208.13L216.12 208.07L216.17 208.02L216.22 207.97L216.28 207.92L216.34 207.88L216.4 207.84L216.46 207.8L216.52 207.77L216.58 207.74L216.65 207.72L216.72 207.69L216.79 207.68L216.86 207.66L216.93 207.66L217 207.65L217.08 207.65L217.15 207.65L217.23 207.66L217.31 207.67L217.39 207.69L217.47 207.71L217.55 207.73L217.63 207.76L217.71 207.79L217.79 207.82L217.87 207.86L217.96 207.91L218.04 207.96L218.12 208.01L218.21 208.07L218.29 208.13L218.38 208.2L218.46 208.27L218.58 208.37L218.69 208.46L218.8 208.54L218.89 208.6L218.99 208.65L219.07 208.68L219.15 208.71L219.22 208.71L219.29 208.71L219.35 208.68L219.4 208.65L219.45 208.59L219.49 208.52L219.53 208.44L219.56 208.33L219.58 208.22L219.6 208.08L219.61 207.93L219.62 207.76L219.62 207.57L219.62 207.36L219.61 207.13L219.59 206.89L219.57 206.62L219.54 206.34L219.51 206.04L219.47 205.72L219.43 205.37L219.38 205.01L219.32 204.62L219.26 204.22L219.2 203.79L219.13 203.34L219.08 203.03L219.03 202.71L218.98 202.39L218.94 202.07L218.89 201.75L218.84 201.43L218.79 201.12L218.75 200.8L218.7 200.48L218.66 200.17L218.62 199.86L218.57 199.55L218.53 199.25L218.49 198.95L218.45 198.65L218.41 198.36L218.38 198.08L218.34 197.8L218.31 197.53L218.28 197.27L218.25 197.01L218.22 196.76L218.2 196.52L218.17 196.29L218.15 196.07L218.13 195.85L218.11 195.65L218.1 195.46L218.09 195.28L218.08 195.12L218.07 194.96L218.06 194.82L218.06 194.69L218.04 194.37L218.01 194.07L217.97 193.8L217.91 193.55L217.84 193.33L217.76 193.13L217.67 192.96L217.57 192.81L217.46 192.69L217.33 192.59L217.21 192.52L217.07 192.47L216.92 192.45L216.77 192.45L216.61 192.47L216.45 192.52ZM233.76 196.19L233.36 196.47L232.91 196.87L232.41 197.38L231.85 198.03L231.21 198.81L230.48 199.73L229.65 200.79L228.71 202.01L223.25 209.06L237.62 215.85L239.08 216.54L240.49 217.21L241.87 217.85L243.18 218.46L244.44 219.04L245.63 219.59L246.75 220.09L247.78 220.56L248.73 220.98L249.58 221.35L250.33 221.67L250.96 221.93L251.48 222.14L251.88 222.28L252.14 222.36L252.26 222.37L252.27 222.27L252.22 222.05L252.1 221.74L251.92 221.33L251.68 220.83L251.39 220.25L251.04 219.58L250.65 218.84L250.21 218.04L249.72 217.17L249.2 216.24L248.65 215.26L248.06 214.23L247.44 213.17L246.8 212.06L246.14 210.93L245.44 209.78L244.73 208.64L244.02 207.52L243.32 206.41L242.62 205.34L241.94 204.29L241.28 203.3L240.63 202.35L240.02 201.45L239.43 200.62L238.88 199.86L238.37 199.18L237.91 198.58L237.49 198.07L237.13 197.66L236.82 197.36L236.35 196.94L235.93 196.58L235.54 196.3L235.18 196.1L234.83 195.98L234.49 195.95L234.14 196.02L233.76 196.19ZM123.59 197.09L120.53 200.15L123.59 204.41L126.79 208.67L127.72 202.94L128.16 199.62L128.16 197.23L127.7 195.78L126.79 195.27L125.42 195.7L123.59 197.09ZM180.14 179.22L179.91 179.32L179.67 179.44L179.42 179.59L179.18 179.76L178.95 179.93L178.64 180.1L178.1 180.29L177.35 180.47L176.44 180.64L175.4 180.79L174.27 180.91L173.09 180.99L168.99 181.28L166.15 181.51L164.44 181.77L163.71 182.11L163.8 182.62L164.59 183.38L165.91 184.45L167.55 185.75L169.01 186.57L170.39 186.9L171.78 186.73L173.27 186.05L174.96 184.85L176.95 183.12L177.92 182.23L178.78 181.4L179.49 180.65L180.05 180.03L180.42 179.55L180.59 179.24L180.54 179.13L180.36 179.15L180.14 179.22ZM161.11 95.5L160.49 95.51L159.88 95.53L159.29 95.55L158.7 95.58L158.13 95.61L157.58 95.65L157.04 95.69L156.52 95.74L156.01 95.79L155.53 95.85L155.06 95.92L154.61 95.99L154.18 96.07L153.78 96.15L153.4 96.23L153.14 96.31L152.86 96.41L152.56 96.53L152.24 96.67L151.9 96.82L151.55 96.99L151.19 97.17L150.8 97.37L150.41 97.59L150 97.81L149.58 98.06L149.16 98.31L148.72 98.57L148.27 98.85L147.82 99.13L147.36 99.43L146.9 99.73L146.43 100.05L145.96 100.37L145.48 100.69L145.01 101.02L144.53 101.36L144.06 101.7L143.59 102.05L143.12 102.4L142.66 102.75L142.2 103.1L141.75 103.46L141.3 103.81L140.86 104.17L140.43 104.52L140.02 104.87L139.61 105.22L139.22 105.57L138.84 105.91L138.47 106.25L138.12 106.58L137.78 106.91L137.47 107.23L137.17 107.54L136.47 108.33L135.79 109.18L135.13 110.09L134.5 111.06L133.88 112.07L133.29 113.13L132.72 114.24L132.18 115.39L131.65 116.59L131.15 117.81L130.68 119.07L130.23 120.36L129.81 121.68L129.41 123.02L129.04 124.39L128.69 125.77L128.37 127.16L128.08 128.57L127.82 129.99L127.59 131.41L127.38 132.84L127.21 134.26L127.06 135.68L126.94 137.1L126.86 138.5L126.81 139.9L126.78 141.27L126.79 142.63L126.84 143.97L126.91 145.28L127.02 146.57L127.16 147.82L127.34 149.04L127.55 150.23L127.8 151.37L128.08 152.47L128.4 153.52L128.76 154.53L129.15 155.48L129.58 156.38L129.66 156.52L129.74 156.66L129.82 156.8L129.89 156.94L129.97 157.09L130.04 157.23L130.11 157.38L130.18 157.53L130.25 157.67L130.32 157.82L130.39 157.96L130.45 158.11L130.52 158.25L130.58 158.4L130.64 158.54L130.7 158.68L130.75 158.82L130.81 158.96L130.86 159.1L130.91 159.24L130.96 159.37L131.01 159.5L131.05 159.63L131.1 159.76L131.14 159.88L131.17 160L131.21 160.12L131.24 160.23L131.28 160.35L131.3 160.45L131.33 160.56L131.35 160.66L131.37 160.75L131.39 160.85L131.41 160.93L131.42 161.02L131.43 161.09L131.44 161.17L131.44 161.24L131.45 161.3L131.46 161.44L131.49 161.6L131.54 161.77L131.62 161.95L131.71 162.15L131.83 162.35L131.96 162.56L132.11 162.78L132.28 163.02L132.47 163.26L132.68 163.51L132.91 163.77L133.15 164.04L133.41 164.31L133.68 164.59L133.97 164.88L134.28 165.18L134.6 165.48L134.94 165.79L135.29 166.1L135.65 166.42L136.03 166.75L136.42 167.08L136.82 167.41L137.23 167.75L137.66 168.09L138.1 168.43L138.54 168.78L139 169.12L139.47 169.47L139.95 169.83L140.44 170.18L140.93 170.53L141.44 170.89L141.95 171.24L142.47 171.6L143 171.95L143.53 172.3L144.07 172.66L144.62 173.01L145 173.25L145.37 173.48L145.74 173.71L146.09 173.92L146.44 174.12L146.78 174.32L147.12 174.5L147.45 174.67L147.78 174.84L148.11 175L148.44 175.15L148.77 175.29L149.1 175.42L149.43 175.54L149.77 175.66L150.12 175.77L150.47 175.88L150.83 175.97L151.21 176.07L151.59 176.15L151.98 176.23L152.38 176.3L152.8 176.37L153.24 176.44L153.69 176.5L154.16 176.55L154.65 176.6L155.16 176.65L155.69 176.69L156.24 176.73L156.81 176.77L157.41 176.8L158.04 176.83L158.69 176.86L159.37 176.89L160.08 176.91L160.82 176.94L161.6 176.96L162.4 176.98L163.25 177L176.02 177.26L186 171.41L186.58 171.07L187.14 170.74L187.69 170.42L188.22 170.1L188.73 169.78L189.23 169.47L189.72 169.16L190.19 168.85L190.65 168.55L191.1 168.25L191.53 167.95L191.95 167.65L192.36 167.35L192.76 167.06L193.15 166.76L193.53 166.47L193.9 166.17L194.26 165.87L194.62 165.57L194.96 165.27L195.3 164.97L195.63 164.66L195.96 164.36L196.28 164.04L196.59 163.73L196.9 163.41L197.21 163.08L197.51 162.75L197.81 162.42L198.1 162.07L198.4 161.73L198.69 161.37L198.98 161.01L199.27 160.64L199.56 160.26L199.85 159.87L200.15 159.48L200.44 159.08L200.73 158.66L201.03 158.24L201.38 157.7L201.72 157.19L202.03 156.7L202.33 156.23L202.62 155.78L202.89 155.35L203.14 154.93L203.38 154.53L203.61 154.14L203.82 153.76L204.02 153.38L204.21 153.02L204.38 152.66L204.54 152.3L204.7 151.94L204.83 151.59L204.96 151.23L205.08 150.86L205.19 150.5L205.29 150.12L205.38 149.74L205.46 149.34L205.54 148.94L205.6 148.51L205.66 148.08L205.71 147.62L205.76 147.15L205.8 146.65L205.83 146.13L205.86 145.59L205.88 145.02L205.9 144.42L205.92 143.79L205.93 143.13L205.94 142.44L205.95 141.71L205.95 140.95L205.95 140.14L205.96 139.3L205.96 138.41L205.94 136.65L205.88 134.93L205.79 133.25L205.66 131.6L205.5 129.98L205.3 128.4L205.07 126.86L204.8 125.36L204.49 123.89L204.14 122.46L203.77 121.06L203.35 119.71L202.9 118.38L202.41 117.1L201.89 115.85L201.34 114.64L200.74 113.47L200.12 112.33L199.45 111.23L198.75 110.17L198.02 109.15L197.25 108.16L196.45 107.21L195.61 106.3L194.74 105.43L193.83 104.59L192.88 103.79L191.91 103.03L190.89 102.31L189.85 101.63L188.76 100.98L187.65 100.37L186.5 99.8L185.31 99.27L184.09 98.78L182.84 98.33L181.55 97.91L180.23 97.54L178.87 97.2L177.48 96.9L176.89 96.78L176.28 96.67L175.66 96.56L175.03 96.46L174.4 96.36L173.75 96.27L173.1 96.18L172.44 96.1L171.77 96.03L171.1 95.95L170.43 95.89L169.75 95.83L169.07 95.77L168.39 95.72L167.71 95.67L167.03 95.63L166.35 95.6L165.68 95.56L165.01 95.54L164.34 95.52L163.68 95.5L163.03 95.5L162.38 95.49L161.74 95.49L161.11 95.5Z" />
    <path
       id="b1Bv80flGy"
       d="M169.42 110.44C167.29 113.76 167.43 113.76 171.29 110.04C173.55 108.04 176.61 106.44 178.07 106.44C179.67 106.44 182.2 108.04 183.66 110.04C185.12 112.16 186.45 112.96 186.45 112.03C186.45 110.17 180.6 103.78 178.87 103.78C178.34 103.78 176.34 104.58 174.61 105.51C172.88 106.31 170.49 108.57 169.42 110.44Z" />
    <path
       id="a9k5gWRjG"
       d="M137.36 118.42C137.36 119.62 137.89 119.35 138.82 117.35C140.55 113.76 145.34 112.3 148.93 114.29C153.19 116.56 154.12 115.89 150.66 113.1C146.54 109.64 141.88 109.77 139.35 113.36C138.16 114.96 137.22 117.22 137.36 118.42Z" />
    <path
       id="ag4Wad50i"
       d="M173.95 128.4C173.28 134.25 173.41 134.52 174.61 131.19C175.94 128 176.61 127.6 179.93 128.26C181.93 128.66 184.06 128.4 184.46 127.73C184.86 126.93 184.33 126.4 183.26 126.4C182.06 126.4 181.13 125.2 181.13 123.74C181.13 120.55 176.08 117.35 175.28 120.02C174.88 120.95 174.35 124.67 173.95 128.4Z" />
    <path
       id="c24uTew3Rk"
       d="M144.28 136.65C144.81 137.05 145.21 136.51 145.21 135.32C145.21 132.92 148.53 132.26 149.86 134.38C151.73 137.31 152.79 135.45 151.99 130.79C150.8 123.74 147.47 123.47 145.21 130.39C144.28 133.32 143.88 136.11 144.28 136.65Z" />
    <path
       id="a1yRgM9DUg"
       d="M153.19 152.21C152.7 152.36 150.26 153.07 145.87 154.34C150.66 153.86 153.32 153.6 153.86 153.54C158.25 153.15 163.04 152.08 164.63 151.15C169.02 148.75 183.79 134.92 183.79 133.19C183.79 131.72 191.38 136.25 193.37 139.04C195.24 141.57 194.44 154.34 192.31 157.8C192.16 158.02 191.4 159.13 190.05 161.13C189.09 159.29 188.56 158.27 188.45 158.07C187.25 155.67 187.25 154.48 188.58 152.35C189.78 150.62 189.91 149.02 189.12 147.69C188.05 145.96 187.78 145.96 187.78 147.96C187.78 151.82 185.39 151.95 183.13 148.09C182.99 147.84 182.28 146.6 181 144.36C181.32 146.6 181.5 147.84 181.53 148.09C181.8 150.09 181.66 152.08 181 152.48C180.47 152.75 180.2 153.94 180.6 155.01C181.13 156.21 179.93 157.27 176.87 158.07C173.15 159.13 172.88 159.53 175.01 160.33C176.74 161.13 178.87 160.73 181.4 159.27C184.86 157.27 185.12 157.27 186.45 159.67C188.32 163.12 188.18 163.39 183.79 165.65C174.61 170.44 156.65 167.12 148.8 159.13C143.08 153.15 140.82 153.41 145.34 159.53C149.86 165.65 158.78 169.38 170.49 170.31C179.4 170.97 181 170.71 185.39 167.78C188.18 166.05 192.04 162.59 194.04 159.93C197.1 155.81 197.63 154.08 197.36 147.69C197.23 143.7 196.7 139.44 196.43 138.24C195.77 136.11 186.45 130.26 184.33 130.53C183.66 130.66 179.4 134.52 174.88 139.04C165.7 148.09 163.97 149.15 153.19 152.21Z" />
    <path
       id="a1awsYrzY"
       d="" />
    <inkscape:path-effect
       effect="skeletal"
       id="path-effect4700"
       is_visible="true"
       pattern="m 0,557.36216 c 0,-2.76 2.24,-5 5,-5 2.76,0 5,2.24 5,5 0,2.76 -2.24,5 -5,5 -2.76,0 -5,-2.24 -5,-5 z"
       copytype="single_stretched"
       prop_scale="1"
       scale_y_rel="false"
       spacing="0"
       normal_offset="0"
       tang_offset="0"
       prop_units="false"
       vertical_pattern="false"
       fuse_tolerance="0" />
    <inkscape:path-effect
       effect="skeletal"
       id="path-effect4697"
       is_visible="true"
       pattern="m 1.599662,538.16622 c 0,-2.76 2.24,-5 4.9999999,-5 2.76,0 5.0000001,2.24 5.0000001,5 0,2.76 -2.2400001,5 -5.0000001,5 -2.7599999,0 -4.9999999,-2.24 -4.9999999,-5 z"
       copytype="single_stretched"
       prop_scale="1"
       scale_y_rel="false"
       spacing="0"
       normal_offset="0"
       tang_offset="0"
       prop_units="false"
       vertical_pattern="false"
       fuse_tolerance="0" />
    <inkscape:path-effect
       effect="skeletal"
       id="path-effect4567"
       is_visible="true"
       pattern="m 0,551.36216 c 0,-2.76 2.24,-5 5,-5 2.76,0 5,2.24 5,5 0,2.76 -2.24,5 -5,5 -2.76,0 -5,-2.24 -5,-5 z"
       copytype="single_stretched"
       prop_scale="1"
       scale_y_rel="false"
       spacing="0"
       normal_offset="0"
       tang_offset="0"
       prop_units="false"
       vertical_pattern="false"
       fuse_tolerance="0" />
    <inkscape:path-effect
       effect="skeletal"
       id="path-effect4493"
       is_visible="true"
       pattern="m 1.599662,534.16622 c 0,-2.76 2.24,-5 4.9999999,-5 2.76,0 5.0000001,2.24 5.0000001,5 0,2.76 -2.2400001,5 -5.0000001,5 -2.7599999,0 -4.9999999,-2.24 -4.9999999,-5 z"
       copytype="single_stretched"
       prop_scale="1"
       scale_y_rel="false"
       spacing="0"
       normal_offset="0"
       tang_offset="0"
       prop_units="false"
       vertical_pattern="false"
       fuse_tolerance="0" />
    <linearGradient
       id="linearGradient4483"
       inkscape:collect="always">
      <stop
         id="stop4485"
         offset="0"
         style="stop-color:#79cc3e;stop-opacity:1" />
      <stop
         id="stop4487"
         offset="1"
         style="stop-color:#218762;stop-opacity:1" />
    </linearGradient>
    <inkscape:path-effect
       fuse_tolerance="0"
       vertical_pattern="false"
       prop_units="false"
       tang_offset="0"
       normal_offset="0"
       spacing="0"
       scale_y_rel="false"
       prop_scale="1"
       copytype="single_stretched"
       pattern="m 1.599662,538.16622 c 0,-2.76 2.24,-5 4.9999999,-5 2.76,0 5.0000001,2.24 5.0000001,5 0,2.76 -2.2400001,5 -5.0000001,5 -2.7599999,0 -4.9999999,-2.24 -4.9999999,-5 z"
       is_visible="true"
       id="path-effect4481"
       effect="skeletal" />
    <inkscape:path-effect
       effect="skeletal"
       id="path-effect4201"
       is_visible="true"
       pattern="m 0,543.36216 c 0,-2.76 2.24,-5 5,-5 2.76,0 5,2.24 5,5 0,2.76 -2.24,5 -5,5 -2.76,0 -5,-2.24 -5,-5 z"
       copytype="single_stretched"
       prop_scale="1"
       scale_y_rel="false"
       spacing="0"
       normal_offset="0"
       tang_offset="0"
       prop_units="false"
       vertical_pattern="false"
       fuse_tolerance="0" />
    <linearGradient
       id="linearGradient4191"
       inkscape:collect="always">
      <stop
         id="stop4193"
         offset="0"
         style="stop-color:#218762;stop-opacity:1" />
      <stop
         id="stop4195"
         offset="1"
         style="stop-color:#79cc3e;stop-opacity:1" />
    </linearGradient>
    <inkscape:path-effect
       fuse_tolerance="0"
       vertical_pattern="false"
       prop_units="false"
       tang_offset="0"
       normal_offset="0"
       spacing="0"
       scale_y_rel="false"
       prop_scale="1"
       copytype="single_stretched"
       pattern="m 0,557.36216 c 0,-2.76 2.24,-5 5,-5 2.76,0 5,2.24 5,5 0,2.76 -2.24,5 -5,5 -2.76,0 -5,-2.24 -5,-5 z"
       is_visible="true"
       id="path-effect4189"
       effect="skeletal" />
    <inkscape:path-effect
       fuse_tolerance="0"
       vertical_pattern="false"
       prop_units="false"
       tang_offset="0"
       normal_offset="0"
       spacing="0"
       scale_y_rel="false"
       prop_scale="1"
       copytype="single_stretched"
       pattern="m 0,557.36216 c 0,-2.76 2.24,-5 5,-5 2.76,0 5,2.24 5,5 0,2.76 -2.24,5 -5,5 -2.76,0 -5,-2.24 -5,-5 z"
       is_visible="true"
       id="path-effect4185"
       effect="skeletal" />
    <linearGradient
       gradientUnits="userSpaceOnUse"
       y2="904.74176"
       x2="164.74593"
       y1="631.57104"
       x1="331.55829"
       id="linearGradient4197"
       xlink:href="#linearGradient4191"
       inkscape:collect="always" />
    <linearGradient
       gradientUnits="userSpaceOnUse"
       y2="609.90405"
       x2="386.06274"
       y1="933.1333"
       x1="203.91331"
       id="linearGradient4489"
       xlink:href="#linearGradient4483"
       inkscape:collect="always" />
    <filter
       height="1.1617928"
       y="-0.080896376"
       width="1.1910301"
       x="-0.095515025"
       id="filter4559"
       style="color-interpolation-filters:sRGB"
       inkscape:collect="always">
      <feGaussianBlur
         id="feGaussianBlur4561"
         stdDeviation="8.8847797"
         inkscape:collect="always" />
    </filter>
    <linearGradient
       gradientTransform="translate(0,-4)"
       y2="609.90405"
       x2="386.06274"
       y1="933.1333"
       x1="203.91331"
       gradientUnits="userSpaceOnUse"
       id="linearGradient4563"
       xlink:href="#linearGradient4483"
       inkscape:collect="always" />
    <filter
       height="1.431554"
       y="-0.21577701"
       width="1.4942981"
       x="-0.24714904"
       id="filter4617"
       style="color-interpolation-filters:sRGB"
       inkscape:collect="always">
      <feGaussianBlur
         id="feGaussianBlur4619"
         stdDeviation="13.863346"
         inkscape:collect="always" />
    </filter>
    <linearGradient
       gradientTransform="translate(0,-6)"
       y2="904.74176"
       x2="164.74593"
       y1="719.99628"
       x1="279.41006"
       gradientUnits="userSpaceOnUse"
       id="linearGradient4621"
       xlink:href="#linearGradient4191"
       inkscape:collect="always" />
  </defs>
  <sodipodi:namedview
     id="base"
     pagecolor="#ffffff"
     bordercolor="#666666"
     borderopacity="1.0"
     inkscape:pageopacity="0.0"
     inkscape:pageshadow="2"
     inkscape:zoom="0.62"
     inkscape:cx="465.30718"
     inkscape:cy="261.93548"
     inkscape:document-units="px"
     inkscape:current-layer="layer1"
     showgrid="false"
     units="px"
     inkscape:window-width="1366"
     inkscape:window-height="705"
     inkscape:window-x="-8"
     inkscape:window-y="-8"
     inkscape:window-maximized="1" />
  <metadata
     id="metadata7">
    <rdf:RDF>
      <cc:Work
         rdf:about="">
        <dc:format>image/svg+xml</dc:format>
        <dc:type
           rdf:resource="http://purl.org/dc/dcmitype/StillImage" />
        <dc:title></dc:title>
      </cc:Work>
    </rdf:RDF>
  </metadata>
  <g
     inkscape:label="Layer 1"
     inkscape:groupmode="layer"
     id="layer1"
     transform="translate(0,-552.36216)">
    <g
       id="g4153"
       transform="matrix(1.9460012,0,0,1.9460012,457.12448,450.37112)">
      <g
         id="g4155">
        <use
           id="use4157"
           xlink:href="#m5bPjclsQx"
           style="opacity:1;fill:#ffffff;fill-opacity:1"
           x="0"
           y="0"
           width="100%"
           height="100%" />
        <g
           id="g4159">
          <use
             id="use4161"
             xlink:href="#m5bPjclsQx"
             style="opacity:1;fill-opacity:0;stroke:#000000;stroke-width:1;stroke-opacity:1"
             x="0"
             y="0"
             width="100%"
             height="100%" />
        </g>
      </g>
      <g
         id="g4163">
        <use
           id="use4165"
           xlink:href="#a3AqiFPD9l"
           style="opacity:1;fill:#ffffff;fill-opacity:1"
           x="0"
           y="0"
           width="100%"
           height="100%" />
        <g
           id="g4167">
          <use
             id="use4169"
             xlink:href="#a3AqiFPD9l"
             style="opacity:1;fill-opacity:0;stroke:#000000;stroke-width:1;stroke-opacity:1"
             x="0"
             y="0"
             width="100%"
             height="100%" />
        </g>
      </g>
      <g
         id="g4171">
        <use
           id="use4173"
           xlink:href="#b4AOeE8cne"
           style="opacity:1;fill:#ffffff;fill-opacity:1"
           x="0"
           y="0"
           width="100%"
           height="100%" />
        <g
           id="g4175">
          <use
             id="use4177"
             xlink:href="#b4AOeE8cne"
             style="opacity:1;fill-opacity:0;stroke:#000000;stroke-width:1;stroke-opacity:1"
             x="0"
             y="0"
             width="100%"
             height="100%" />
        </g>
      </g>
      <g
         id="g4179">
        <use
           id="use4181"
           xlink:href="#d2zQgeadrC"
           style="opacity:1;fill:#ffffff;fill-opacity:1"
           x="0"
           y="0"
           width="100%"
           height="100%" />
        <g
           id="g4183">
          <use
             id="use4185"
             xlink:href="#d2zQgeadrC"
             style="opacity:1;fill-opacity:0;stroke:#ffffff;stroke-width:1;stroke-opacity:1"
             x="0"
             y="0"
             width="100%"
             height="100%" />
        </g>
      </g>
      <g
         id="g4187">
        <use
           id="use4189"
           xlink:href="#e4jQKDpaH"
           style="opacity:1;fill:#0a00fd;fill-opacity:1"
           x="0"
           y="0"
           width="100%"
           height="100%" />
        <g
           id="g4191">
          <use
             id="use4193"
             xlink:href="#e4jQKDpaH"
             style="opacity:1;fill-opacity:0;stroke:#000000;stroke-width:1;stroke-opacity:1"
             x="0"
             y="0"
             width="100%"
             height="100%" />
        </g>
      </g>
      <g
         id="g4195">
        <use
           id="use4197"
           xlink:href="#afGNGm4yZ"
           style="opacity:1;fill:#0a00fd;fill-opacity:1"
           x="0"
           y="0"
           width="100%"
           height="100%" />
        <g
           id="g4199">
          <use
             id="use4201"
             xlink:href="#afGNGm4yZ"
             style="opacity:1;fill-opacity:0;stroke:#000000;stroke-width:1;stroke-opacity:1"
             x="0"
             y="0"
             width="100%"
             height="100%" />
        </g>
      </g>
      <g
         id="g4203">
        <use
           id="use4205"
           xlink:href="#bmN2Q1RTw"
           style="opacity:1;fill:#000000;fill-opacity:1"
           x="0"
           y="0"
           width="100%"
           height="100%" />
        <g
           id="g4207">
          <use
             id="use4209"
             xlink:href="#bmN2Q1RTw"
             style="opacity:1;fill-opacity:0;stroke:#000000;stroke-width:1;stroke-opacity:0"
             x="0"
             y="0"
             width="100%"
             height="100%" />
        </g>
      </g>
      <g
         id="g4211">
        <use
           id="use4213"
           xlink:href="#b1Bv80flGy"
           style="opacity:1;fill:#000000;fill-opacity:1"
           x="0"
           y="0"
           width="100%"
           height="100%" />
        <g
           id="g4215">
          <use
             id="use4217"
             xlink:href="#b1Bv80flGy"
             style="opacity:1;fill-opacity:0;stroke:#000000;stroke-width:1;stroke-opacity:0"
             x="0"
             y="0"
             width="100%"
             height="100%" />
        </g>
      </g>
      <g
         id="g4219">
        <use
           id="use4221"
           xlink:href="#a9k5gWRjG"
           style="opacity:1;fill:#000000;fill-opacity:1"
           x="0"
           y="0"
           width="100%"
           height="100%" />
        <g
           id="g4223">
          <use
             id="use4225"
             xlink:href="#a9k5gWRjG"
             style="opacity:1;fill-opacity:0;stroke:#000000;stroke-width:1;stroke-opacity:0"
             x="0"
             y="0"
             width="100%"
             height="100%" />
        </g>
      </g>
      <g
         id="g4227">
        <use
           id="use4229"
           xlink:href="#ag4Wad50i"
           style="opacity:1;fill:#000000;fill-opacity:1"
           x="0"
           y="0"
           width="100%"
           height="100%" />
        <g
           id="g4231">
          <use
             id="use4233"
             xlink:href="#ag4Wad50i"
             style="opacity:1;fill-opacity:0;stroke:#000000;stroke-width:1;stroke-opacity:0"
             x="0"
             y="0"
             width="100%"
             height="100%" />
        </g>
      </g>
      <g
         id="g4235">
        <use
           id="use4237"
           xlink:href="#c24uTew3Rk"
           style="opacity:1;fill:#000000;fill-opacity:1"
           x="0"
           y="0"
           width="100%"
           height="100%" />
        <g
           id="g4239">
          <use
             id="use4241"
             xlink:href="#c24uTew3Rk"
             style="opacity:1;fill-opacity:0;stroke:#000000;stroke-width:1;stroke-opacity:0"
             x="0"
             y="0"
             width="100%"
             height="100%" />
        </g>
      </g>
      <g
         id="g4243">
        <use
           id="use4245"
           xlink:href="#a1yRgM9DUg"
           style="opacity:1;fill:#000000;fill-opacity:1"
           x="0"
           y="0"
           width="100%"
           height="100%" />
        <g
           id="g4247">
          <use
             id="use4249"
             xlink:href="#a1yRgM9DUg"
             style="opacity:1;fill-opacity:0;stroke:#000000;stroke-width:1;stroke-opacity:0"
             x="0"
             y="0"
             width="100%"
             height="100%" />
        </g>
      </g>
      <g
         id="g4251">
        <g
           id="g4253">
          <use
             id="use4255"
             xlink:href="#a1awsYrzY"
             style="opacity:1;fill-opacity:0;stroke:#4ea199;stroke-width:1;stroke-opacity:1"
             x="0"
             y="0"
             width="100%"
             height="100%" />
        </g>
      </g>
    </g>
    <g
       transform="matrix(1.243604,0.23250121,-0.23250121,1.243604,19.955545,-292.06514)"
       id="g4670">
      <path
         sodipodi:nodetypes="cc"
         inkscape:connector-curvature="0"
         inkscape:original-d="m 332.9683,767.59513 c 16.38705,112.8599 -53.78043,138.99495 -129.16211,150.4195"
         inkscape:path-effect="#path-effect4189"
         id="path4187"
         d="m 332.9683,767.59513 c 0.88434,-0.1284 3.28533,6.82919 4.86805,19.37344 1.51659,12.02012 2.41615,31.12575 -3.1177,51.43776 -2.37134,8.62305 -6.0335,17.54948 -11.37867,26.03094 -3.23922,5.12762 -7.05914,10.02324 -11.4253,14.57684 -1.87188,1.95223 -3.81144,3.80743 -5.80615,5.56376 -14.72867,12.90383 -31.96404,20.44747 -46.62002,25.04002 -15.88894,5.00116 -30.68448,7.32058 -40.07158,8.3316 -9.80709,1.05626 -15.48134,0.91894 -15.61074,0.0651 -0.43286,-2.85608 22.0179,-4.93143 52.89299,-16.50698 13.71204,-5.16257 29.71279,-12.67202 42.79333,-24.39925 1.78471,-1.59126 3.52316,-3.26405 5.20402,-5.01646 3.92018,-4.08704 7.37098,-8.4441 10.31943,-12.983 4.88095,-7.49411 8.39727,-15.50301 10.8665,-23.30653 5.83473,-18.28174 6.32272,-36.82461 6.35515,-48.48495 0.0342,-12.31269 -0.41679,-19.55572 0.73069,-19.72233 z"
         style="fill:url(#linearGradient4197);fill-opacity:1;fill-rule:evenodd;stroke:none;stroke-width:1px;stroke-linecap:butt;stroke-linejoin:miter;stroke-opacity:1" />
      <path
         inkscape:connector-curvature="0"
         inkscape:original-d="m 215.95435,977.17805 c -57.9478,-278.89917 -2.67162,-351.094 196.75841,-123.17396"
         inkscape:path-effect="#path-effect4481"
         id="path4479"
         d="m 215.95435,977.17805 c -0.90366,0.18776 -11.79972,-35.95531 -20.25114,-94.21325 0,0 0,-10e-6 0,-10e-6 -3.12664,-21.52844 -6.13021,-47.65264 -6.22438,-74.76115 -0.0854,-16.96572 0.81802,-35.73219 5.90268,-54.00948 1.78594,-6.42916 4.24071,-12.95067 7.81295,-19.08445 1.82818,-3.15249 4.01675,-6.19601 6.60091,-8.96723 1.52246,-1.63266 3.17394,-3.1619 4.95906,-4.5593 4.55288,-3.5186 9.83493,-5.92454 15.35823,-7.08977 6.20979,-1.27425 12.43054,-1.10632 18.23959,-0.0931 7.36292,1.26837 14.27531,3.68959 20.64575,6.54586 8.34521,3.72653 16.09225,8.25444 23.25333,12.9671 21.49559,14.14295 40.18752,31.14123 55.08869,45.62189 0,0 1e-5,10e-6 1e-5,10e-6 43.42183,42.16314 65.86951,74.03422 65.37273,74.46891 -1.92587,1.68513 -26.57587,-28.30609 -70.80616,-68.70022 0,0 -1e-5,-10e-6 -1e-5,-10e-6 -15.16328,-13.8377 -33.93683,-30.19279 -54.78631,-43.46502 -6.95096,-4.42359 -14.30894,-8.62474 -22.04672,-11.97969 -5.92122,-2.55583 -12.08067,-4.69396 -18.35018,-5.70135 -4.91191,-0.77649 -9.9077,-0.94027 -14.54281,0.0856 -4.06236,0.86783 -7.98866,2.6627 -11.30126,5.24117 -1.33516,1.02133 -2.58796,2.18262 -3.76407,3.45576 -1.99589,2.16057 -3.75345,4.62436 -5.30316,7.2272 -3.03413,5.12233 -5.18095,10.86371 -6.87258,16.72997 -4.83165,16.7837 -5.80232,34.7248 -6.00578,51.33942 -0.28179,26.37134 2.12989,52.34143 4.54649,73.72344 0,0 0,2e-5 0,2e-5 6.56641,58.02141 14.67667,94.76005 12.47414,95.21768 z"
         style="fill:url(#linearGradient4489);fill-opacity:1;fill-rule:evenodd;stroke:none;stroke-width:1px;stroke-linecap:butt;stroke-linejoin:miter;stroke-opacity:1" />
      <path
         style="fill:url(#linearGradient4563);fill-opacity:1;fill-rule:evenodd;stroke:none;stroke-width:1px;stroke-linecap:butt;stroke-linejoin:miter;stroke-opacity:1;filter:url(#filter4559)"
         d="m 215.95435,973.17805 c -0.90366,0.18776 -11.79972,-35.95531 -20.25114,-94.21325 0,0 0,-10e-6 0,-10e-6 -3.12664,-21.52844 -6.13021,-47.65264 -6.22438,-74.76115 -0.0854,-16.96572 0.81802,-35.73219 5.90268,-54.00948 1.78594,-6.42916 4.24071,-12.95067 7.81295,-19.08445 1.82818,-3.15249 4.01675,-6.19601 6.60091,-8.96723 1.52246,-1.63266 3.17394,-3.1619 4.95906,-4.5593 4.55288,-3.5186 9.83493,-5.92454 15.35823,-7.08977 6.20979,-1.27425 12.43054,-1.10632 18.23959,-0.0931 7.36292,1.26837 14.27531,3.68959 20.64575,6.54586 8.34521,3.72653 16.09225,8.25444 23.25333,12.9671 21.49559,14.14295 40.18752,31.14123 55.08869,45.62189 0,0 1e-5,10e-6 1e-5,10e-6 43.42183,42.16314 65.86951,74.03422 65.37273,74.46891 -1.92587,1.68513 -26.57587,-28.30609 -70.80616,-68.70022 0,0 -1e-5,-10e-6 -1e-5,-10e-6 -15.16328,-13.8377 -33.93683,-30.19279 -54.78631,-43.46502 -6.95096,-4.42359 -14.30894,-8.62474 -22.04672,-11.97969 -5.92122,-2.55583 -12.08067,-4.69396 -18.35018,-5.70135 -4.91191,-0.77649 -9.9077,-0.94027 -14.54281,0.0856 -4.06236,0.86783 -7.98866,2.6627 -11.30126,5.24117 -1.33516,1.02133 -2.58796,2.18262 -3.76407,3.45576 -1.99589,2.16057 -3.75345,4.62436 -5.30316,7.2272 -3.03413,5.12233 -5.18095,10.86371 -6.87258,16.72997 -4.83165,16.7837 -5.80232,34.7248 -6.00578,51.33942 -0.28179,26.37134 2.12989,52.34143 4.54649,73.72344 0,0 0,2e-5 0,2e-5 6.56641,58.02141 14.67667,94.76005 12.47414,95.21768 z"
         id="path4491"
         inkscape:path-effect="#path-effect4493"
         inkscape:original-d="m 215.95435,973.17805 c -57.9478,-278.89917 -2.67162,-351.094 196.75841,-123.17396"
         inkscape:connector-curvature="0" />
      <path
         style="fill:url(#linearGradient4621);fill-opacity:1;fill-rule:evenodd;stroke:none;stroke-width:1px;stroke-linecap:butt;stroke-linejoin:miter;stroke-opacity:1;filter:url(#filter4617)"
         d="m 332.38891,758.49606 c 0.88559,-0.12859 3.29081,6.87762 4.87488,19.5003 1.52064,12.11712 2.40826,31.29076 -3.02575,51.7646 -2.34339,8.75197 -5.96304,17.82806 -11.25494,26.4979 -3.14755,5.14583 -6.85482,10.08511 -11.09652,14.70983 -1.92739,2.10142 -3.92993,4.09948 -5.99422,5.99174 -14.58012,13.30247 -31.72747,21.26629 -46.43169,26.14108 -15.8747,5.28209 -30.60619,7.7272 -40.03503,8.79602 -9.81464,1.11256 -15.4912,0.96335 -15.61945,0.1171 -0.43237,-2.85288 22.0299,-4.86834 52.73977,-16.95905 13.71881,-5.42035 29.60613,-13.31865 42.58333,-25.4288 1.85148,-1.71886 3.65137,-3.52576 5.38767,-5.4183 3.82072,-4.16451 7.18349,-8.57991 10.06375,-13.15815 4.85661,-7.70185 8.35012,-15.88029 10.80464,-23.83223 5.75576,-18.4973 6.25184,-37.11381 6.28252,-48.8745 0.0323,-12.39104 -0.42533,-19.68109 0.72104,-19.84754 z"
         id="path4565"
         inkscape:path-effect="#path-effect4567"
         inkscape:original-d="m 332.38891,758.49606 c 16.38705,112.8599 -53.20104,142.09402 -128.58272,153.51857"
         inkscape:connector-curvature="0"
         sodipodi:nodetypes="cc" />
    </g>
    <text
       xml:space="preserve"
       style="font-style:normal;font-weight:normal;font-size:195.16744995px;line-height:125%;font-family:sans-serif;letter-spacing:0px;word-spacing:0px;fill:#79cc3e;fill-opacity:1;stroke:none;stroke-width:1px;stroke-linecap:butt;stroke-linejoin:miter;stroke-opacity:1;"
       x="436.08926"
       y="840.27875"
       id="text4414"
       sodipodi:linespacing="125%"><tspan
         sodipodi:role="line"
         id="tspan4416"
         x="436.08926"
         y="840.27875">+</tspan></text>
  </g>
</svg>
